<?xml version="1.0" standalone="no"?>
<!DOCTYPE svg PUBLIC "-//W3C//DTD SVG 20010904//EN"
 "http://www.w3.org/TR/2001/REC-SVG-20010904/DTD/svg10.dtd">
<svg version="1.0" xmlns="http://www.w3.org/2000/svg"
 width="1521.000000pt" height="1521.000000pt" viewBox="0 0 1521.000000 1521.000000"
 preserveAspectRatio="xMidYMid meet">
<metadata>
Created by potrace 1.14, written by Peter Selinger 2001-2017
</metadata>
<g transform="translate(0.000000,1521.000000) scale(0.100000,-0.100000)"
fill="#000000" stroke="none">
<path d="M7956 14850 c8 -60 10 -72 29 -165 14 -71 37 -195 51 -280 2 -16 7
-37 9 -45 2 -8 7 -37 10 -65 4 -27 8 -57 10 -65 5 -16 11 -52 20 -115 3 -23 8
-52 10 -65 3 -14 8 -45 11 -70 3 -25 8 -54 10 -65 2 -11 7 -42 10 -70 4 -27 8
-53 11 -57 2 -5 2 -8 -1 -8 -3 0 -28 44 -55 98 -93 180 -268 438 -351 517
l-31 30 6 -35 c7 -42 58 -194 92 -275 29 -68 124 -262 156 -315 26 -45 13 -32
-53 55 -29 39 -89 106 -132 150 -78 79 -79 79 -73 45 4 -19 24 -78 46 -130
l38 -95 -56 60 c-43 46 -54 54 -49 35 4 -14 8 -32 10 -40 10 -43 86 -220 143
-335 64 -128 64 -129 27 -85 -53 61 -131 141 -178 181 -37 32 -38 32 -31 9 13
-44 108 -243 147 -308 21 -34 38 -64 38 -66 0 -2 -35 32 -77 76 -43 44 -95 93
-115 110 l-37 29 30 -73 c36 -89 115 -236 183 -343 57 -90 223 -325 241 -340
26 -22 105 -123 105 -134 0 -22 -18 -10 -45 32 -33 49 -192 258 -230 301 -85
98 -233 241 -241 233 -11 -10 103 -245 183 -375 9 -15 -20 10 -64 56 -72 74
-107 103 -86 70 4 -7 8 -17 9 -23 5 -31 115 -259 182 -375 42 -74 78 -138 80
-142 2 -4 -16 -5 -40 -2 l-43 5 53 -52 c29 -29 54 -50 56 -48 2 2 1 23 -4 47
l-7 43 61 -5 c33 -3 73 -5 88 -5 20 -1 32 -11 53 -47 20 -34 30 -43 36 -33 5
9 -1 23 -18 41 -24 26 -25 28 -7 29 10 1 21 1 24 1 58 -6 170 -19 245 -30 l47
-7 -23 -29 c-20 -26 -34 -106 -18 -106 3 0 16 19 28 43 45 87 47 88 121 76 36
-7 66 -13 68 -14 4 -3 -135 -264 -176 -331 -28 -45 -31 -56 -30 -138 0 -71 3
-85 13 -74 15 16 206 334 265 443 41 73 44 76 74 71 69 -11 106 -19 106 -22 0
-9 -100 -201 -119 -229 -12 -16 -21 -40 -21 -53 0 -13 -4 -20 -10 -17 -5 3
-10 0 -10 -8 0 -7 -21 -53 -46 -103 -51 -100 -49 -99 26 6 112 155 278 355
287 346 16 -16 -107 -308 -182 -430 -29 -48 -34 -66 -30 -95 4 -30 4 -32 -4
-13 -6 12 -12 22 -14 22 -2 0 -38 -46 -79 -103 -42 -56 -117 -145 -167 -197
-69 -72 -91 -102 -91 -122 0 -48 27 -29 64 43 10 20 29 43 44 50 14 8 77 73
141 144 64 72 125 140 136 151 11 12 74 78 139 148 65 70 121 125 123 122 3
-2 -2 -17 -10 -33 -8 -15 -18 -39 -22 -52 l-7 -24 31 22 c17 12 31 18 31 13 0
-5 -24 -56 -53 -114 -74 -146 -189 -310 -336 -478 -17 -19 -28 -36 -25 -39 5
-5 27 18 65 69 15 19 35 44 45 55 11 11 46 52 79 90 97 114 421 435 545 539
63 54 116 101 118 105 4 13 -374 127 -553 167 -44 10 -81 19 -83 20 -2 1 8 38
22 82 44 140 79 368 54 360 -5 -2 -57 -93 -115 -203 -58 -110 -106 -201 -108
-203 -5 -6 -95 12 -95 20 0 5 17 39 38 76 84 148 207 449 226 552 2 14 11 57
20 95 19 89 26 146 16 140 -4 -3 -34 -51 -65 -107 -32 -57 -64 -113 -72 -126
-14 -22 -38 -68 -160 -302 -86 -164 -162 -298 -173 -305 -22 -14 -15 16 16 65
18 30 34 60 34 66 0 5 5 15 11 21 14 14 70 139 111 248 35 94 84 279 92 350 9
78 16 185 11 185 -2 0 -23 -33 -46 -72 -23 -40 -49 -80 -58 -89 -57 -57 -143
-170 -220 -289 -33 -52 -61 -88 -62 -80 0 8 -2 24 -3 35 -10 69 -8 94 12 138
24 54 35 62 21 15 -13 -45 -4 -46 36 -4 197 209 323 568 306 871 -2 28 -2 29
-16 11 -28 -37 -97 -178 -144 -296 -27 -67 -52 -124 -57 -128 -4 -4 -4 -1 0 5
10 18 17 213 8 213 -5 0 -35 -54 -67 -120 -32 -66 -60 -120 -62 -120 -2 0 -2
4 1 8 16 26 87 332 101 437 3 22 8 51 10 65 8 49 17 200 12 200 -9 0 -72 -118
-107 -200 -18 -41 -36 -84 -41 -95 -15 -32 -86 -247 -95 -285 l-8 -35 -11 50
c-9 40 -9 58 2 90 19 55 52 183 59 225 3 19 7 46 10 60 8 40 11 232 5 270 l-6
35 -32 -50 c-37 -59 -76 -143 -94 -203 -7 -23 -14 -40 -16 -38 -2 2 -26 97
-52 212 -27 115 -68 274 -91 354 -23 80 -43 154 -46 165 -2 11 -24 81 -49 155
-28 85 -42 118 -39 90z m224 -1390 c0 -15 -10 -3 -45 55 -17 28 -16 28 13 -5
17 -19 31 -42 32 -50z m37 -304 c4 -26 0 -20 -26 34 l-22 45 23 -29 c12 -16
24 -39 25 -50z"/>
<path d="M5818 14322 c163 -164 289 -298 388 -412 21 -25 41 -47 44 -50 6 -6
125 -145 155 -181 167 -203 191 -234 145 -193 -103 92 -282 209 -373 243 l-28
11 23 -41 c50 -89 190 -247 338 -380 22 -19 28 -28 15 -24 -86 32 -189 65
-192 61 -4 -3 106 -97 312 -268 370 -306 544 -453 544 -460 1 -4 -25 12 -56
35 -134 101 -280 186 -382 222 l-43 15 40 -48 c75 -88 273 -283 420 -411 40
-35 70 -66 68 -68 -2 -3 -42 13 -88 35 -45 22 -94 43 -108 47 l-25 8 20 -24
c11 -13 30 -35 43 -49 l22 -25 -75 -9 c-41 -4 -75 -11 -75 -15 1 -3 23 -24 50
-45 61 -48 200 -185 249 -246 20 -25 44 -54 54 -65 65 -72 223 -341 256 -435
10 -30 9 -31 -7 -19 -9 8 37 -40 103 -106 66 -66 144 -147 173 -179 28 -33 52
-56 52 -50 0 12 -15 34 -100 149 -115 155 -198 289 -277 447 -56 113 -64 140
-38 118 9 -7 0 19 -19 58 -21 45 -57 96 -94 134 -262 275 -243 252 -214 259
53 11 96 0 154 -40 68 -47 77 -41 12 8 -24 19 -42 36 -40 39 3 2 62 6 133 9
70 2 129 6 131 7 1 2 -40 68 -93 147 -52 79 -95 151 -95 159 0 41 -77 296
-107 353 -8 16 -12 31 -10 33 2 3 21 -35 42 -83 20 -48 52 -121 71 -161 19
-41 34 -75 34 -77 0 -2 36 -79 81 -171 44 -93 82 -180 84 -194 3 -22 81 -160
91 -160 2 0 -14 34 -36 75 l-39 75 56 0 c62 0 58 -9 38 80 -3 14 3 5 13 -20
10 -25 15 -49 11 -54 -4 -5 -3 -20 2 -35 6 -14 10 -27 9 -29 -1 -1 1 -15 4
-30 12 -59 17 -89 22 -147 5 -49 16 -77 59 -150 29 -49 62 -108 74 -130 15
-28 21 -34 22 -20 0 11 2 36 4 55 3 24 -5 55 -26 98 -45 94 -66 144 -114 270
l-43 113 61 -2 c95 -1 93 0 127 -107 35 -109 80 -280 87 -332 10 -71 21 -61
16 16 -7 138 -9 147 -50 234 -55 117 -74 167 -67 184 3 8 0 17 -7 22 -9 5 -10
2 -5 -12 4 -11 4 -15 -1 -9 -5 6 -15 28 -22 50 -34 102 -117 299 -173 409 -59
114 -117 216 -124 216 -15 0 38 -280 82 -434 14 -48 23 -90 21 -93 -3 -2 -8 9
-12 24 -13 54 -88 229 -146 345 -92 179 -231 379 -334 478 l-36 35 26 -70 c15
-39 40 -104 56 -145 46 -114 44 -114 -16 5 -114 223 -221 377 -363 525 -51 52
-53 53 -47 25 14 -63 109 -284 201 -468 53 -106 101 -198 106 -204 6 -7 7 -13
2 -12 -5 0 -40 42 -77 94 -38 51 -76 101 -86 111 -9 11 -54 95 -99 188 -103
211 -161 314 -277 491 -85 128 -211 295 -234 310 -23 14 66 -236 140 -394 27
-58 47 -103 45 -100 -304 301 -397 387 -601 558 -136 113 -188 155 -222 174
-6 4 68 -73 165 -171z"/>
<path d="M4820 13251 c0 -11 178 -143 260 -192 68 -40 87 -60 39 -40 -63 26
-302 97 -464 137 -190 47 -189 47 -275 63 -30 6 -66 13 -80 16 -109 22 -66 3
185 -83 254 -87 562 -203 610 -230 11 -5 -10 -8 -61 -7 -42 0 -107 -3 -143 -9
l-66 -9 53 -25 c121 -55 380 -131 570 -167 43 -8 86 -17 97 -19 11 -2 40 -7
65 -11 40 -7 185 -73 177 -81 -2 -2 -19 1 -38 6 -113 30 -476 50 -564 30 -27
-6 -19 -10 70 -38 98 -30 270 -79 595 -167 91 -25 179 -49 195 -54 17 -5 85
-24 151 -41 67 -18 132 -41 145 -51 24 -19 24 -19 -17 -5 -37 13 -148 39 -219
51 -92 16 -293 25 -335 15 -21 -5 -12 -11 62 -42 47 -20 127 -51 178 -69 l91
-33 -68 -19 c-482 -130 -977 -335 -1409 -581 -83 -47 -157 -86 -165 -86 -24 0
-149 -43 -149 -52 0 -4 12 -11 26 -14 23 -6 15 -13 -88 -81 -62 -42 -117 -79
-122 -84 -11 -10 -6 -9 139 26 61 15 121 29 135 31 14 3 48 9 75 14 28 6 64
12 80 14 136 18 140 19 114 26 -14 4 -50 10 -80 14 -30 3 -63 8 -74 10 -11 2
-44 7 -73 11 -29 4 -54 11 -57 14 -8 14 107 74 158 82 29 5 70 11 92 15 22 3
85 6 140 6 119 0 165 -6 298 -37 34 -8 80 -17 102 -20 84 -13 104 -17 244 -45
79 -17 146 -29 148 -27 1 2 -118 39 -265 82 -147 43 -285 85 -307 94 l-40 16
30 5 c39 8 308 4 360 -4 281 -46 430 -93 655 -206 90 -45 136 -62 210 -75 93
-18 203 -44 268 -64 17 -5 32 -8 32 -5 0 9 -282 144 -405 194 -71 29 -209 79
-305 111 -136 45 -167 58 -140 60 245 14 542 -52 805 -180 127 -62 300 -172
375 -238 28 -25 60 -43 84 -47 l40 -8 -61 64 c-34 35 -76 82 -95 105 -18 23
-44 46 -58 52 -108 43 -274 112 -278 116 -3 3 30 3 74 1 368 -20 745 -193
1028 -472 94 -92 166 -182 238 -295 31 -48 41 -57 71 -61 42 -5 42 -5 -37 87
-122 140 -144 163 -336 356 -119 121 -220 213 -260 238 l-65 42 70 -5 c95 -7
210 -31 307 -66 122 -43 70 -8 -72 48 -238 95 -544 241 -732 350 -98 56 -118
74 -75 67 12 -2 51 -6 87 -9 121 -12 335 -76 453 -136 20 -11 37 -18 37 -16 0
3 -162 136 -225 185 -11 8 5 -10 35 -42 30 -31 51 -57 48 -57 -17 0 -328 112
-533 192 -321 125 -525 212 -525 224 0 6 270 -4 300 -10 14 -4 -36 15 -110 40
l-134 47 64 17 c77 20 155 38 190 44 77 13 193 37 200 41 5 3 38 -15 74 -39
36 -24 66 -42 66 -39 0 3 -18 22 -40 43 -47 44 -45 45 56 56 l61 6 65 -99 c36
-54 77 -121 91 -148 17 -35 44 -65 89 -100 99 -76 202 -159 213 -171 6 -5 46
-41 90 -80 44 -38 86 -75 93 -81 12 -12 32 -19 21 -9 -120 120 -454 481 -609
658 l-30 33 65 9 c36 5 65 12 65 15 0 16 -274 185 -290 179 -5 -2 26 -46 69
-98 44 -52 77 -97 74 -100 -2 -3 -24 18 -46 45 -115 137 -301 305 -447 402
-76 51 -259 147 -266 140 -9 -8 156 -184 419 -448 176 -176 194 -210 66 -127
-35 23 -99 63 -143 89 -64 39 -90 62 -136 125 -153 204 -395 411 -638 547 -82
46 -260 122 -267 115 -12 -12 319 -311 565 -510 45 -37 36 -35 -52 10 -40 21
-108 53 -150 71 -49 21 -84 43 -94 60 -32 48 -156 160 -241 216 -158 105 -336
174 -492 190 -28 2 -51 1 -51 -4z"/>
<path d="M11080 12490 c-145 -43 -300 -102 -415 -158 -5 -2 10 14 35 37 51 46
46 50 -31 20 -30 -12 -76 -30 -104 -41 -101 -40 -366 -167 -436 -210 -129 -79
-126 -72 46 96 113 110 160 162 140 154 -100 -41 -370 -204 -480 -290 -5 -5
-34 -27 -63 -49 -29 -23 -50 -45 -45 -49 4 -4 62 -29 128 -55 190 -76 605
-271 585 -276 -3 0 -21 -3 -40 -6 -54 -7 -241 -51 -248 -57 -3 -3 17 -7 44 -7
27 -1 58 -3 69 -4 11 -1 47 -6 80 -9 33 -4 105 -18 160 -30 110 -25 107 -31
-20 -41 -44 -3 -91 -8 -105 -10 -14 -2 -74 -7 -133 -10 -59 -4 -116 -8 -125
-10 -9 -1 -62 -6 -116 -10 -55 -4 -107 -8 -115 -10 -9 -1 -52 -6 -96 -9 -44
-4 -96 -8 -115 -11 -19 -2 -60 -7 -90 -9 -93 -9 -163 -16 -200 -21 -19 -2 -60
-7 -90 -11 -50 -5 -110 -27 -110 -39 0 -3 30 -2 68 1 37 3 90 8 117 10 74 5
392 4 450 -2 111 -10 282 -35 315 -46 l35 -11 -55 -13 c-30 -7 -73 -16 -95
-19 -22 -3 -47 -8 -55 -10 -8 -2 -40 -7 -70 -11 -30 -3 -64 -7 -75 -9 -11 -1
-40 -3 -65 -5 -44 -2 -44 -2 -15 -11 17 -6 38 -12 47 -14 56 -13 127 -40 121
-46 -12 -11 -129 -26 -251 -33 -29 -2 -56 -6 -60 -10 -4 -4 -2 -6 3 -5 15 4
109 -11 124 -20 13 -9 -150 -52 -254 -67 -27 -5 -53 -9 -57 -10 -5 -1 -20 -2
-35 -3 -46 -2 -20 -10 52 -15 82 -7 225 -36 225 -46 0 -11 -166 -58 -260 -74
-47 -8 -74 -15 -60 -16 26 -2 40 -4 100 -16 19 -4 103 -8 187 -9 256 -5 472
-26 607 -61 28 -7 29 -8 8 -15 -35 -13 -234 -46 -314 -51 -29 -2 -40 -18 -13
-18 23 0 255 -77 370 -122 162 -64 475 -225 475 -244 0 -3 -4 -3 -9 0 -10 6
-245 82 -316 101 -193 54 -314 86 -335 90 -14 3 -41 9 -60 15 -58 17 -54 12
22 -28 40 -21 100 -55 133 -77 100 -67 245 -213 191 -192 -10 4 -15 3 -11 -3
3 -6 14 -10 23 -11 9 0 35 -9 57 -19 l40 -19 -40 -1 -40 -2 35 -9 c19 -5 96
-26 170 -45 206 -55 460 -143 460 -161 0 -3 -15 -3 -34 -1 -51 6 -34 -8 26
-22 75 -18 219 -74 313 -122 90 -46 189 -107 183 -113 -2 -2 -64 6 -138 20
-142 25 -218 40 -434 90 -28 6 -20 2 79 -50 50 -25 104 -48 120 -50 17 -2 56
-6 88 -10 146 -16 328 -102 446 -210 l44 -40 -34 -5 c-19 -3 -52 -2 -73 3 -21
4 -43 6 -48 5 -5 -2 30 -30 79 -63 201 -137 458 -340 578 -458 l60 -59 -50 35
c-87 61 -481 307 -491 307 -3 0 16 -26 41 -57 65 -80 116 -184 139 -286 6 -25
5 -27 -11 -18 -10 6 -45 35 -78 66 -33 30 -61 55 -62 55 -1 0 2 -11 7 -25 5
-14 12 -36 14 -48 3 -12 7 -32 10 -44 28 -126 24 -359 -8 -493 -3 -14 5 -65
18 -115 l23 -90 0 145 c0 143 4 201 23 317 6 32 10 60 10 63 1 3 7 -8 14 -25
11 -25 21 -70 42 -189 29 -160 21 -461 -16 -630 -5 -22 -7 -43 -5 -46 2 -3 7
-33 10 -65 15 -131 22 -146 24 -55 2 87 5 125 16 240 7 72 9 87 31 245 6 44
32 157 38 163 15 14 43 -211 40 -326 l-1 -77 16 52 c18 59 30 76 26 38 -2 -14
-2 -25 1 -25 6 0 27 43 50 105 12 33 35 94 51 135 16 41 30 78 31 83 6 23 18
6 23 -33 3 -25 7 -36 9 -25 1 11 2 23 1 27 -2 19 54 191 81 248 31 63 32 64
38 35 3 -16 5 -61 4 -100 l-2 -70 13 40 c7 22 25 78 40 125 32 101 95 241 105
235 3 -2 5 -19 3 -37 -4 -29 1 -25 37 36 45 76 85 130 140 189 40 44 77 68 68
46 -3 -8 -15 -38 -27 -68 l-22 -53 39 40 c35 36 126 102 142 102 4 0 14 -16
23 -35 14 -30 15 -36 2 -49 -20 -20 -19 -32 1 -15 14 11 18 10 31 -6 7 -11 12
-27 10 -36 -3 -12 3 -12 37 5 30 15 61 21 116 21 95 0 173 -35 219 -97 35 -47
38 -46 15 3 -54 113 -224 174 -376 134 -16 -4 -28 -3 -28 1 0 5 26 34 57 66
49 50 54 58 35 58 -12 0 -48 -9 -79 -20 -63 -22 -61 -23 -94 45 -11 22 -30 58
-43 80 -12 22 -37 67 -56 100 -111 199 -314 508 -436 665 -228 290 -340 419
-558 635 -307 305 -585 533 -916 752 -162 107 -231 150 -393 241 -43 24 -77
45 -77 46 0 1 6 3 13 3 17 0 157 13 192 18 122 16 350 64 342 71 -8 8 -151 33
-227 40 -47 4 -96 8 -110 10 -14 1 -41 3 -60 4 -32 2 -33 3 -10 9 23 7 23 8 5
14 -24 7 -113 24 -175 33 -41 6 -70 9 -139 13 -13 0 -22 4 -18 7 3 3 198 8
434 10 235 2 448 5 473 7 25 3 80 8 123 11 43 4 86 9 95 10 9 2 48 7 86 11 37
4 64 10 60 14 -10 9 -105 38 -144 45 -14 2 -52 9 -85 15 -33 6 -87 15 -120 19
-50 7 -34 9 90 10 141 0 212 4 330 18 121 13 217 33 210 43 -2 5 -30 17 -62
29 -113 40 -187 54 -299 56 -117 1 -137 8 -57 20 27 4 55 9 63 11 81 16 362
59 470 70 30 4 69 8 85 10 17 2 64 7 105 11 41 4 84 8 95 9 11 1 33 3 49 4 57
2 18 10 -85 18 -200 13 -660 5 -691 -13 -9 -5 -10 -4 -3 3 6 5 53 24 105 42
114 39 280 110 280 120 0 9 1 9 -120 11 -128 2 -186 -5 -337 -39 -157 -36
-360 -121 -478 -200 -39 -27 -251 -88 -263 -76 -3 3 1 5 8 5 42 0 496 308 479
324 -2 2 -47 -9 -99 -24z m-103 -401 c-22 -11 -37 -22 -35 -25 2 -2 29 -8 59
-13 44 -7 27 -9 -96 -9 -82 0 -144 2 -137 5 26 10 218 61 232 62 8 0 -2 -9
-23 -20z"/>
<path d="M7375 12260 c10 -11 20 -20 23 -20 3 0 -3 9 -13 20 -10 11 -20 20
-23 20 -3 0 3 -9 13 -20z"/>
<path d="M7445 12204 c22 -22 42 -39 44 -37 7 4 -21 33 -53 55 -26 18 -25 15
9 -18z"/>
<path d="M8050 12227 c0 -12 52 -102 71 -122 34 -35 20 0 -26 65 -25 35 -45
61 -45 57z"/>
<path d="M9631 12093 c-55 -41 -62 -53 -31 -53 11 0 20 -3 20 -6 0 -11 -86
-128 -160 -219 -39 -47 -65 -85 -59 -85 8 0 101 80 139 120 3 3 41 37 85 74
44 38 81 73 83 77 2 4 -15 13 -37 21 l-40 13 29 48 c17 26 28 47 26 47 -2 0
-26 -17 -55 -37z"/>
<path d="M8161 12060 c0 -8 11 -28 24 -45 16 -19 25 -24 25 -15 0 8 -11 29
-25 45 -15 19 -24 24 -24 15z"/>
<path d="M6711 11996 c2 -1 38 -20 79 -41 41 -22 87 -47 103 -58 47 -32 29
-10 -23 28 -28 20 -74 45 -102 56 -52 19 -65 22 -57 15z"/>
<path d="M6945 11860 c10 -11 20 -20 23 -20 3 0 -3 9 -13 20 -10 11 -20 20
-23 20 -3 0 3 -9 13 -20z"/>
<path d="M8649 11713 c-13 -16 -12 -17 4 -4 9 7 17 15 17 17 0 8 -8 3 -21 -13z"/>
<path d="M8567 11620 c-88 -91 -95 -91 -78 -3 6 33 5 40 -6 36 -16 -6 -15 2
-18 -123 -3 -94 -2 -103 11 -85 23 31 164 245 161 245 -1 0 -32 -32 -70 -70z"/>
<path d="M7804 11583 c20 -39 36 -74 36 -78 0 -4 15 -25 34 -48 43 -53 191
-281 240 -369 20 -38 39 -68 41 -68 10 0 -6 41 -40 100 -21 36 -44 77 -52 92
-7 14 -20 29 -28 32 -8 3 -15 14 -15 25 0 31 -158 293 -206 341 l-45 45 35
-72z"/>
<path d="M7490 11585 c19 -19 36 -35 39 -35 3 0 -10 16 -29 35 -19 19 -36 35
-39 35 -3 0 10 -16 29 -35z"/>
<path d="M8112 11442 c-11 -50 -10 -56 14 -100 14 -26 28 -49 31 -52 6 -7 -5
73 -20 145 l-14 60 -11 -53z"/>
<path d="M4719 11264 c-139 -94 -365 -189 -527 -223 -79 -16 -85 -15 -64 11
63 80 153 152 237 189 51 23 57 31 18 25 -16 -2 -55 -7 -88 -11 -33 -3 -71 -8
-85 -10 -14 -3 -41 -7 -60 -10 -19 -3 -48 -8 -65 -11 l-30 -6 30 26 c29 24 29
25 6 21 -36 -7 -281 -87 -281 -92 0 -2 8 -2 18 1 9 3 34 7 54 10 21 3 59 11
84 16 26 6 48 9 50 7 2 -2 -51 -46 -119 -99 -125 -98 -137 -107 -291 -242 -90
-78 -418 -403 -486 -481 -126 -144 -312 -371 -360 -441 -57 -83 -152 -214
-154 -214 -2 0 -23 7 -46 15 -79 28 -169 34 -240 16 -33 -8 -31 -9 25 -11 85
-2 106 -7 175 -38 l60 -27 -33 -50 c-68 -100 -192 -314 -280 -480 -50 -93 -91
-171 -92 -173 -1 -1 -23 6 -49 17 -25 11 -46 17 -46 13 0 -4 14 -25 30 -46 42
-56 37 -61 -16 -21 -86 66 -260 137 -389 160 -52 9 -186 8 -196 -2 -5 -5 17
-23 55 -43 35 -19 63 -37 61 -41 -2 -3 -27 -3 -56 1 -53 7 -138 5 -219 -5
-184 -22 -359 -96 -475 -202 -28 -24 -36 -36 -20 -25 78 51 210 107 288 122
l37 7 -44 -45 c-52 -52 -100 -139 -111 -196 l-7 -40 34 27 c112 89 398 251
415 234 2 -3 -9 -12 -25 -21 -69 -36 -154 -142 -186 -234 -13 -35 -13 -42 -1
-42 8 0 17 5 21 11 14 23 185 128 258 158 72 30 203 65 276 74 37 4 181 -51
188 -72 2 -6 -3 -9 -11 -5 -22 8 -141 -22 -205 -53 -36 -16 -83 -53 -127 -96
-69 -70 -75 -89 -19 -66 16 7 31 13 34 14 3 1 37 11 75 22 79 24 112 30 207
39 l68 6 -15 -44 c-15 -43 -16 -44 -82 -56 -68 -13 -200 -69 -189 -80 4 -3 50
-8 104 -10 53 -2 98 -5 100 -7 2 -2 -20 -75 -48 -162 -28 -87 -60 -185 -70
-218 -23 -72 -101 -383 -103 -407 -2 -22 1 -21 -67 -2 -128 36 -356 22 -473
-28 -55 -24 -49 -33 28 -44 55 -7 100 -22 75 -24 -8 -1 -24 -4 -35 -7 -22 -5
-19 -5 -154 0 -187 7 -386 -54 -501 -154 l-35 -30 130 4 c72 2 124 2 116 -1
-21 -7 -182 -117 -226 -153 -73 -61 -201 -193 -241 -249 -63 -87 -61 -90 12
-18 73 70 190 168 183 152 -2 -5 -16 -33 -32 -61 -38 -74 -70 -213 -48 -213
21 0 240 236 372 400 39 50 73 90 75 90 2 0 -22 -36 -55 -79 -32 -44 -72 -112
-89 -153 -29 -70 -60 -194 -50 -203 8 -8 51 38 198 210 30 35 56 54 84 62 23
7 43 13 44 13 2 0 -5 -15 -16 -33 -30 -52 -63 -147 -51 -147 13 0 92 55 164
115 70 58 76 60 55 18 -9 -21 -21 -49 -25 -62 -10 -32 6 -26 91 35 36 26 100
59 142 74 42 15 85 31 96 35 16 7 17 6 7 -13 -25 -47 -17 -53 62 -46 39 4 75
9 78 13 4 3 10 33 13 66 3 33 8 70 10 81 3 12 7 39 10 60 3 22 8 50 11 64 9
45 15 74 26 136 l11 61 116 -3 117 -3 -65 32 c-63 31 -64 32 -35 37 40 8 135
3 215 -11 93 -17 190 -52 285 -103 46 -24 127 -58 181 -76 55 -19 124 -44 154
-57 47 -20 51 -20 30 -4 -14 10 -41 33 -60 50 -19 17 -38 31 -42 31 -5 0 -8 4
-8 9 0 7 58 0 115 -14 11 -3 4 4 -15 15 l-35 21 80 -5 c110 -7 183 -23 305
-67 86 -32 61 -15 -127 88 -89 48 -291 126 -410 160 -57 15 -103 31 -103 35 0
8 91 21 160 23 136 2 272 -31 424 -103 5 -3 1 9 -9 25 -30 51 -234 159 -455
241 -113 42 -155 56 -230 77 -3 1 -25 7 -50 15 l-45 13 35 9 c51 12 227 11
301 -2 97 -17 192 -49 295 -99 51 -25 86 -38 77 -29 -18 20 -221 105 -353 147
-119 38 -258 69 -464 106 -21 3 -36 8 -33 11 9 10 121 45 160 51 56 8 160 8
226 -1 60 -7 198 -51 220 -69 12 -10 13 -9 4 8 -20 37 -58 64 -143 103 -161
74 -345 129 -491 147 -92 11 -90 9 -69 62 10 26 26 50 36 53 33 12 154 1 242
-21 98 -24 176 -60 245 -113 26 -20 49 -36 51 -36 7 0 -104 102 -164 151 -30
25 -71 50 -92 57 -62 21 -141 40 -198 47 -30 4 -56 8 -58 10 -4 3 33 94 78
193 l33 73 36 -33 c33 -31 27 -17 -11 25 -13 15 -14 25 -6 48 5 16 12 29 14
29 11 0 122 -75 169 -114 114 -93 245 -251 311 -374 16 -30 53 -79 82 -110 29
-31 47 -46 40 -32 -7 14 -16 27 -19 30 -7 6 -173 254 -213 318 -77 124 -77
133 6 78 207 -140 396 -389 472 -622 9 -28 28 -62 41 -74 29 -27 31 -19 10 41
-30 84 -51 199 -37 199 14 0 97 -94 141 -159 48 -71 102 -177 131 -261 20 -56
76 -137 87 -126 2 2 -1 32 -6 67 -5 35 -12 81 -15 102 -6 36 -52 114 -118 200
-17 20 -27 37 -23 37 15 0 94 -45 132 -76 23 -19 44 -34 48 -34 11 0 -157 211
-220 276 -11 11 -45 47 -75 78 l-55 58 35 -7 c53 -11 169 -67 225 -110 80 -61
82 -61 39 -14 -22 24 -61 66 -85 94 -57 64 -319 326 -433 433 -49 46 -87 84
-85 86 8 7 146 -45 214 -80 73 -38 120 -70 169 -113 l29 -26 -28 45 c-103 168
-321 362 -517 461 -32 16 -58 32 -58 35 0 15 198 -5 254 -25 l59 -21 -49 46
c-65 60 -186 169 -254 229 -30 26 -59 52 -65 57 -13 13 76 4 136 -13 24 -7 69
-26 99 -43 53 -28 54 -28 35 -5 -34 42 -139 144 -168 165 -20 14 -26 25 -21
37 9 25 24 21 93 -23 76 -49 168 -139 251 -245 34 -44 63 -81 65 -83 1 -1 -35
73 -81 165 -46 92 -84 174 -84 181 0 9 14 5 43 -12 183 -109 306 -328 311
-556 2 -83 4 -88 54 -175 29 -49 52 -85 52 -80 0 10 -53 213 -109 418 -33 120
-32 121 41 44 50 -52 107 -140 134 -204 27 -68 33 -74 28 -26 l-5 38 21 -25
c65 -78 153 -302 176 -450 3 -19 26 -75 50 -125 24 -49 55 -128 68 -175 l25
-85 1 50 c1 28 3 59 4 70 2 11 6 49 10 85 7 63 24 116 27 80 1 -22 7 -51 11
-55 2 -2 3 58 3 133 1 134 9 267 21 327 3 17 6 38 7 48 3 34 14 15 34 -60 l21
-78 2 90 c2 131 23 277 48 345 8 22 11 18 30 -41 12 -36 25 -86 29 -110 6 -35
9 -16 15 96 3 77 8 149 11 160 3 11 8 40 12 65 17 103 92 300 95 250 1 -8 3
-24 6 -35 18 -92 25 -269 14 -358 -7 -54 2 -51 20 8 7 22 18 54 25 70 27 64
70 170 71 175 0 3 12 30 25 60 30 71 151 311 144 286 -3 -11 -22 -74 -42 -140
-19 -67 -38 -132 -40 -146 l-6 -25 29 26 c35 31 89 69 99 69 16 0 -6 -106 -35
-167 -19 -43 -25 -63 -16 -60 24 9 24 -2 5 -66 -34 -110 -124 -260 -202 -337
-19 -19 -38 -46 -42 -60 -6 -19 4 -12 41 29 48 54 103 107 157 153 35 31 92
64 83 49 -4 -6 23 8 61 33 126 81 280 144 397 161 36 6 67 20 109 51 33 24 57
44 55 44 -2 0 -44 -14 -94 -31 -49 -17 -96 -32 -104 -34 -8 -1 -40 -10 -70
-19 -53 -15 -82 -21 -145 -32 -16 -3 -47 -9 -68 -14 -20 -4 -39 -5 -42 -1 -12
20 415 261 461 261 7 0 15 4 19 10 5 9 -12 4 -162 -40 -35 -10 -60 -13 -57 -8
15 23 228 153 349 212 174 86 514 206 579 206 9 0 16 4 16 8 0 4 -66 6 -147 4
-82 -2 -145 -1 -142 2 30 31 501 161 696 192 19 3 45 8 57 10 11 2 37 7 56 10
19 3 60 9 90 14 110 18 224 31 405 46 196 16 133 20 -230 17 -274 -2 -385 0
-373 7 60 37 325 100 523 126 71 9 69 14 -6 14 l-64 1 45 24 c25 13 88 36 140
52 l95 28 -80 11 c-81 11 -192 11 -255 -1 -38 -6 -286 -55 -310 -60 -62 -14
-80 -17 -80 -11 0 6 122 87 150 99 13 6 -14 4 -140 -9 -78 -8 -210 -15 -210
-11 0 12 133 86 205 115 86 34 240 76 320 88 28 4 127 8 220 9 94 1 182 7 196
13 14 6 50 13 80 17 98 12 75 30 -55 41 -114 10 -108 10 -186 -4 -36 -7 -78
-14 -95 -17 -16 -3 -46 -8 -65 -11 -19 -3 -46 -8 -60 -10 -43 -7 -122 -21
-170 -30 -14 -2 -41 -7 -60 -10 -28 -4 -300 -58 -405 -80 -73 -15 -198 -34
-201 -31 -8 8 115 87 202 130 74 37 155 66 289 104 23 7 97 54 92 59 -2 2 -57
-18 -123 -45 -232 -94 -466 -168 -679 -216 -29 -6 -29 -6 -12 13 30 33 169
128 252 172 96 52 97 53 60 46 -17 -3 -55 -8 -85 -12 -84 -9 -86 -9 -219 -59
-123 -45 -256 -85 -286 -85 -38 0 148 154 261 216 57 31 79 49 49 40 -11 -3
-38 -8 -60 -12 -22 -3 -75 -12 -117 -18 -81 -13 -93 -9 -55 17 18 14 -114 -33
-178 -63 -59 -27 -355 -122 -355 -113 0 12 109 110 176 158 129 93 352 188
494 211 45 8 51 14 14 15 -16 1 -45 3 -64 4 -30 2 -113 -23 -185 -56 -105 -47
-692 -219 -750 -219 -9 0 1 14 22 33 90 80 261 177 393 224 l65 23 -61 0 c-55
0 -68 -4 -115 -36z"/>
<path d="M5640 11260 c-9 -6 -10 -10 -3 -10 6 0 15 5 18 10 8 12 4 12 -15 0z"/>
<path d="M6045 11191 c-59 -12 -28 -21 88 -25 65 -2 116 -2 113 1 -9 9 -119
33 -146 32 -14 -1 -38 -4 -55 -8z"/>
<path d="M7105 11183 c6 -5 30 -25 55 -44 72 -55 110 -89 200 -181 72 -73 95
-91 147 -109 34 -13 60 -26 57 -31 -5 -8 20 -20 70 -32 25 -6 21 0 -29 43 -77
68 -229 183 -340 257 -96 65 -176 113 -160 97z"/>
<path d="M8308 11093 c-19 -83 -16 -100 12 -66 13 17 18 39 18 83 -1 33 -4 60
-7 60 -3 0 -14 -35 -23 -77z"/>
<path d="M6960 11126 c0 -2 7 -6 15 -10 8 -3 15 -1 15 4 0 6 -7 10 -15 10 -8
0 -15 -2 -15 -4z"/>
<path d="M8595 11080 c-7 -12 2 -12 30 0 19 8 19 9 -2 9 -12 1 -25 -3 -28 -9z"/>
<path d="M7796 11010 c32 -33 84 -74 114 -92 30 -17 78 -48 107 -69 29 -22 55
-39 58 -39 6 0 -78 102 -122 147 -19 20 -137 83 -197 106 -11 4 7 -19 40 -53z"/>
<path d="M7720 10716 c0 -2 7 -7 16 -10 8 -3 12 -2 9 4 -6 10 -25 14 -25 6z"/>
<path d="M9010 10696 c0 -2 28 -13 63 -26 34 -12 68 -27 76 -34 11 -8 13 -8 8
1 -12 20 -95 63 -121 63 -14 0 -26 -2 -26 -4z"/>
<path d="M9450 10639 c25 -13 104 -51 175 -85 72 -35 173 -89 225 -120 106
-63 122 -70 172 -78 19 -3 43 -8 54 -11 10 -4 -6 8 -37 27 -98 58 -185 125
-236 182 -32 34 -62 57 -79 61 -85 15 -199 33 -269 40 l-50 5 45 -21z"/>
<path d="M7135 10292 c-90 -15 -87 -14 -245 -109 -124 -76 -241 -137 -390
-207 -52 -24 -126 -67 -165 -95 -38 -28 -79 -56 -89 -63 -80 -53 -579 -439
-606 -469 -13 -14 -80 -61 -80 -55 0 11 64 111 119 186 30 41 113 134 185 205
72 72 110 114 86 95 -57 -45 -304 -254 -350 -296 -19 -18 -51 -47 -70 -64 -19
-18 -95 -89 -168 -159 -74 -69 -138 -127 -143 -129 -12 -5 73 165 114 226 20
28 34 52 32 52 -6 0 -175 -191 -293 -333 -40 -48 -75 -87 -77 -87 -11 0 33
119 83 220 31 63 58 120 60 125 5 11 -166 -203 -335 -420 -56 -71 -113 -143
-127 -160 -27 -33 -27 -35 -5 65 7 30 12 56 11 57 -1 2 8 24 19 49 11 26 18
48 16 50 -2 2 -33 -42 -71 -98 l-67 -101 37 22 c20 12 38 20 40 18 4 -4 -35
-82 -101 -202 -46 -84 -165 -321 -165 -329 0 -15 88 83 95 105 67 212 294 472
503 578 24 12 46 21 48 18 4 -4 -98 -157 -149 -220 l-32 -42 36 21 c19 12 60
29 90 39 30 10 88 35 129 56 134 69 248 83 343 41 l46 -20 27 41 c78 118 270
344 434 508 58 59 158 162 223 230 65 68 140 142 168 164 27 22 62 50 77 63
69 60 311 211 443 276 81 40 205 92 275 116 71 23 131 44 134 46 7 7 -57 1
-145 -14z"/>
<path d="M9070 10235 c0 -2 14 -11 30 -20 33 -17 38 -14 14 9 -14 15 -44 22
-44 11z"/>
<path d="M9268 10184 c77 -47 160 -127 207 -200 19 -30 35 -58 35 -62 0 -17
49 -53 165 -119 410 -236 870 -564 1198 -856 49 -44 77 -63 77 -53 0 21 6 20
43 -6 53 -36 121 -113 150 -171 25 -48 101 -137 97 -112 -6 27 3 24 31 -11 17
-22 43 -59 57 -84 14 -25 47 -70 72 -100 66 -77 170 -226 231 -328 43 -72 134
-203 171 -247 5 -5 15 -19 23 -30 14 -19 14 -18 5 9 -6 15 -26 55 -45 88 -19
32 -35 61 -35 64 0 20 -180 263 -254 344 -50 55 -51 61 -9 44 62 -26 144 -83
212 -148 l64 -61 -43 64 c-68 102 -166 219 -264 319 -51 50 -86 92 -79 92 22
0 138 -56 188 -90 25 -17 70 -55 100 -84 30 -29 55 -47 55 -40 0 24 -153 198
-315 357 -167 166 -168 168 -60 130 75 -26 168 -86 231 -148 59 -60 62 -61 51
-29 -13 36 -183 217 -277 294 -30 25 -57 47 -60 50 -3 4 -38 32 -77 63 -75 59
-87 73 -55 63 9 -3 31 -8 47 -10 17 -2 39 -7 50 -12 11 -4 -14 24 -55 62 -41
38 -206 200 -366 359 -262 262 -296 293 -354 318 -34 15 -64 26 -66 24 -2 -2
26 -30 63 -63 72 -62 150 -143 228 -234 54 -64 160 -219 153 -225 -7 -8 -160
87 -230 142 -86 67 -96 72 -66 32 37 -49 90 -147 86 -158 -4 -12 -159 103
-276 206 -20 17 -38 30 -40 29 -1 -2 5 -20 13 -41 9 -20 14 -39 12 -41 -9 -9
-185 117 -292 208 -122 105 -268 251 -316 316 -17 23 -29 42 -26 42 2 0 24 -7
47 -15 51 -18 58 -19 42 -3 -25 25 -10 26 58 3 82 -28 191 -82 270 -134 30
-20 62 -40 70 -45 8 -5 -1 12 -21 39 -19 27 -46 52 -59 56 -14 4 -63 22 -110
39 -141 53 -263 92 -300 95 -19 2 -70 6 -113 10 l-79 6 34 -28 c18 -16 58 -47
88 -69 135 -100 263 -270 301 -396 7 -26 6 -27 -14 -16 -21 11 -170 121 -193
143 -58 53 -102 90 -174 145 -46 35 -124 104 -173 152 -83 84 -91 88 -140 94
l-52 6 63 -38z"/>
<path d="M6321 10074 c-69 -24 -127 -47 -130 -50 -3 -4 3 -4 14 -1 11 3 33 9
50 13 26 7 28 6 15 -7 -8 -8 -52 -43 -97 -77 -46 -35 -83 -65 -83 -67 0 -2 35
20 78 49 42 29 91 61 109 70 48 24 189 116 178 115 -5 0 -66 -20 -134 -45z"/>
<path d="M7150 10061 c-63 -35 -115 -72 -130 -92 l-25 -33 35 22 c19 13 81 50
138 84 89 53 120 79 95 78 -5 -1 -55 -27 -113 -59z"/>
<path d="M8916 9931 c-14 -16 -11 -21 57 -69 39 -28 84 -63 100 -77 19 -19 27
-22 27 -11 0 10 6 13 17 9 36 -14 -14 37 -99 101 -81 61 -87 64 -102 47z"/>
<path d="M9180 9896 c89 -94 93 -99 134 -151 22 -28 44 -55 50 -60 12 -11 24
-28 107 -150 84 -123 209 -351 209 -381 0 -16 -46 22 -164 135 -43 42 -70 63
-59 46 23 -34 63 -112 87 -169 l16 -39 -22 19 c-13 10 -26 23 -30 29 -16 22
-15 -5 2 -66 10 -37 20 -82 23 -100 2 -19 18 -63 34 -99 59 -126 151 -395 141
-406 -8 -7 -38 7 -38 18 0 5 -46 78 -101 161 -56 84 -99 143 -95 132 84 -232
160 -501 186 -650 6 -38 18 -87 25 -107 16 -40 81 -287 89 -334 3 -16 10 -58
16 -94 6 -36 12 -73 14 -82 3 -24 11 -30 45 -34 17 -2 58 -13 93 -25 46 -15
76 -19 117 -15 31 3 81 6 111 6 l55 1 -75 32 c-86 37 -166 78 -195 101 -18 14
-15 15 45 11 69 -5 222 -32 270 -47 140 -44 231 -78 305 -113 96 -46 304 -115
270 -89 -34 25 -314 161 -420 203 -55 22 -91 41 -80 42 165 10 260 -8 422 -81
57 -25 64 -26 43 -8 l-25 21 30 -7 c115 -28 300 -124 428 -224 49 -39 69 -51
50 -31 -49 52 -143 173 -138 177 12 12 214 -132 377 -267 52 -44 53 -44 18 -7
-33 36 -34 38 -10 31 14 -4 47 -18 75 -32 46 -23 39 -14 -93 112 -78 76 -141
139 -139 142 2 2 17 -1 32 -7 15 -6 29 -9 31 -8 1 2 -28 25 -67 51 -38 27 -69
43 -69 38 0 -6 -27 15 -60 46 -33 31 -58 58 -56 60 7 7 162 -49 240 -87 44
-22 81 -38 82 -37 5 5 -142 115 -254 189 -67 45 -120 83 -117 86 9 9 130 -20
205 -49 41 -16 100 -45 130 -65 40 -27 50 -31 35 -14 -62 72 -81 85 -320 210
-200 104 -266 142 -262 147 7 7 114 5 137 -2 37 -12 20 11 -35 45 -30 19 -54
38 -55 41 0 10 130 -17 190 -40 30 -11 81 -37 113 -56 l58 -35 -33 46 c-18 26
-40 49 -48 51 -22 8 -222 83 -245 92 -27 12 -89 36 -95 37 -5 1 -29 10 -95 39
-40 17 -40 17 -15 27 14 5 53 10 87 11 77 2 71 10 -47 67 -51 24 -87 46 -80
50 12 7 105 5 155 -4 17 -3 33 -6 38 -6 4 0 23 -6 42 -14 19 -8 35 -12 35 -8
0 4 -33 20 -73 36 -39 16 -94 40 -121 54 -41 20 -48 21 -42 7 4 -12 -3 -10
-24 8 -16 14 -61 42 -100 63 -38 21 -70 41 -70 45 0 4 13 6 29 5 25 -2 28 1
21 15 -13 23 -69 69 -85 69 -7 0 -21 3 -31 7 -14 5 -16 2 -11 -16 5 -21 4 -22
-11 -7 -10 8 -44 51 -77 95 -65 87 -63 86 -168 82 -34 -1 -37 1 -24 13 7 8 30
23 50 33 l35 20 -40 61 c-22 34 -47 63 -54 63 -52 5 -50 8 -34 -64 17 -81 23
-153 12 -142 -6 6 -66 96 -135 202 -135 205 -200 297 -365 518 -118 158 -139
182 -166 197 -11 6 14 -29 55 -78 109 -128 200 -265 251 -374 40 -87 68 -154
77 -187 l10 -36 -36 34 c-157 149 -379 422 -563 691 -71 105 -79 113 -150 151
l-75 41 55 -58z"/>
<path d="M7270 9899 l-35 -30 43 27 c23 15 42 28 42 30 0 11 -18 0 -50 -27z"/>
<path d="M6839 9877 c-35 -23 -98 -64 -141 -90 -66 -41 -82 -58 -118 -118 -24
-38 -46 -72 -51 -75 -5 -3 -9 -10 -9 -16 0 -6 17 7 38 28 68 69 168 158 277
249 33 27 64 53 70 57 25 22 -9 3 -66 -35z"/>
<path d="M5869 9885 c-25 -13 -52 -32 -60 -42 -13 -17 -12 -17 15 1 16 10 44
27 63 38 18 11 33 22 33 24 0 6 0 6 -51 -21z"/>
<path d="M6046 9855 c-11 -8 -15 -15 -9 -15 6 0 16 7 23 15 16 19 11 19 -14 0z"/>
<path d="M5456 9841 c-4 -5 3 -7 14 -4 23 6 26 13 6 13 -8 0 -17 -4 -20 -9z"/>
<path d="M8900 9757 c0 -6 29 -68 63 -137 62 -121 149 -318 183 -410 9 -25 34
-96 55 -158 22 -63 53 -134 71 -158 17 -24 33 -43 34 -41 2 1 -6 29 -17 62
-11 33 -33 111 -50 173 -31 116 -33 124 -49 204 -5 26 -43 113 -84 195 -62
121 -87 160 -141 215 -36 38 -65 62 -65 55z"/>
<path d="M7015 9732 c-23 -15 -56 -36 -75 -46 -37 -21 -175 -130 -185 -147 -5
-8 86 51 120 78 6 5 33 23 60 41 48 31 135 102 125 102 -3 -1 -23 -13 -45 -28z"/>
<path d="M10933 9687 c71 -75 119 -129 160 -183 32 -42 55 -63 74 -67 16 -3
29 -4 30 -3 1 1 -25 35 -58 76 -83 104 -87 111 -49 100 17 -5 30 -7 30 -4 0 4
-196 104 -204 104 -3 0 5 -10 17 -23z"/>
<path d="M7405 9589 c-33 -39 -88 -101 -123 -137 -58 -62 -77 -94 -241 -427
-98 -198 -191 -387 -205 -419 -15 -33 -34 -69 -42 -80 -15 -20 -15 -19 -10 14
3 19 8 57 12 85 11 87 71 309 113 420 23 60 41 110 41 113 0 2 -19 -17 -43
-42 -49 -53 -64 -59 -42 -15 9 17 14 36 11 42 -3 8 -5 8 -5 -1 -1 -8 -9 -26
-20 -40 -10 -15 -37 -63 -61 -107 -63 -119 -67 -120 -58 -12 4 50 12 107 17
126 6 19 9 36 7 38 -8 8 -164 -361 -241 -572 -20 -55 -40 -109 -45 -120 -5
-11 -27 -69 -49 -130 -42 -116 -44 -115 -42 18 1 42 -3 77 -8 77 -16 0 -1 197
25 309 41 177 117 347 230 521 35 52 35 54 8 29 -16 -15 -42 -37 -58 -50 -33
-28 -44 -50 -169 -354 -296 -715 -309 -750 -384 -1005 -55 -188 -59 -185 -57
32 0 65 0 117 -1 115 -1 -1 -21 -47 -45 -102 -55 -131 -62 -145 -71 -145 -8 0
-4 160 6 225 32 209 88 400 170 587 29 67 38 96 26 83 -37 -39 -131 -177 -131
-194 0 -9 -15 -70 -34 -136 -19 -66 -37 -133 -39 -150 -3 -16 -23 -120 -45
-230 -34 -167 -93 -465 -108 -540 -19 -99 -38 -175 -43 -175 -30 0 -60 203
-55 370 4 151 32 359 54 399 11 22 31 95 23 87 -6 -6 -14 -18 -44 -72 -9 -16
-19 -45 -22 -64 -3 -19 -8 -46 -11 -60 -23 -107 -36 -169 -40 -190 -2 -14 -13
-74 -25 -135 -11 -60 -23 -123 -26 -140 -2 -16 -7 -41 -9 -55 -3 -14 -8 -43
-11 -65 -3 -22 -10 -67 -15 -100 -5 -33 -12 -82 -15 -110 -4 -27 -8 -61 -11
-75 -8 -50 -17 -136 -18 -167 l-1 -33 135 -5 c74 -2 144 -7 156 -9 12 -2 45
-7 75 -11 56 -6 94 -15 189 -42 51 -15 53 -16 30 -25 -14 -5 -52 -14 -85 -19
-33 -6 -73 -12 -90 -15 -16 -3 -86 -7 -153 -9 -68 -2 -126 -6 -130 -9 -3 -3 1
-6 9 -6 8 0 50 -14 94 -31 74 -30 90 -32 220 -34 77 -2 151 -6 165 -9 14 -4
40 -9 59 -12 102 -17 317 -106 305 -126 -4 -6 -74 -9 -185 -6 l-178 4 34 -23
c19 -13 37 -23 40 -23 7 0 69 -43 72 -50 2 -3 27 -4 56 -2 118 8 265 -45 360
-128 47 -42 94 -107 84 -117 -8 -8 -130 24 -199 52 -32 12 -58 19 -58 14 0 -5
4 -9 8 -9 5 0 61 -53 125 -117 159 -161 282 -317 367 -464 33 -58 28 -54 -60
52 -74 89 -303 311 -391 379 l-83 65 47 -66 c88 -123 142 -273 146 -404 2 -38
1 -68 -2 -65 -2 3 -37 58 -76 123 -135 220 -187 292 -366 501 -60 71 -110 133
-110 137 0 5 -10 16 -22 24 -34 23 -28 9 18 -49 75 -94 169 -313 169 -394 0
-19 -17 -2 -82 79 -177 225 -413 492 -463 525 -12 7 -42 20 -67 28 l-46 13 78
-76 c138 -135 227 -291 264 -462 18 -84 28 -189 18 -189 -4 0 -33 52 -65 115
-121 239 -279 436 -487 605 -63 52 -65 53 -71 29 -20 -71 -14 -84 85 -184 92
-92 191 -226 242 -327 33 -66 30 -64 -206 136 -180 152 -195 162 -198 139 -2
-16 8 -41 27 -69 61 -84 87 -173 62 -212 -6 -10 -10 -7 -15 12 -7 27 -62 96
-76 96 -5 0 -10 -10 -12 -22 -2 -19 -7 -14 -28 25 -17 33 -48 65 -95 102 -38
29 -95 72 -125 96 -72 55 -240 200 -310 267 l-55 53 35 -7 c120 -23 290 -109
419 -212 34 -28 42 -31 39 -16 -2 10 -44 49 -93 86 -50 38 -94 71 -100 76 -5
4 -35 26 -66 48 l-56 40 -124 -2 c-120 -1 -283 -11 -324 -19 -11 -2 -24 -4
-30 -5 -5 0 17 -11 50 -24 242 -93 467 -270 600 -471 48 -72 90 -155 80 -155
-2 0 -87 64 -187 143 -101 79 -241 187 -313 242 -71 54 -175 133 -230 175 -56
42 -107 76 -115 75 -68 -11 -94 -16 -98 -19 -2 -2 7 -20 20 -40 18 -28 40 -42
100 -67 127 -51 262 -139 365 -238 67 -64 177 -211 158 -211 -4 0 -43 22 -89
49 l-82 48 161 -161 c211 -210 373 -411 488 -602 39 -65 46 -84 23 -62 -7 7
-64 60 -127 118 -62 58 -167 157 -234 221 -189 184 -270 259 -276 259 -3 0
-30 18 -60 41 -46 35 -178 109 -194 109 -14 0 143 -137 193 -168 232 -144 491
-396 650 -633 53 -80 126 -209 120 -214 -2 -2 -30 21 -63 51 -81 74 -107 87
-63 33 63 -78 137 -213 183 -336 13 -34 21 -63 18 -63 -9 0 -79 74 -282 299
-52 57 -92 98 -89 90 60 -151 81 -185 176 -287 84 -91 335 -472 320 -487 -2
-2 -18 8 -35 23 -18 15 -50 42 -72 60 l-40 32 24 -52 c33 -72 55 -182 48 -243
-2 -27 -6 -52 -8 -53 -8 -9 -106 139 -159 239 -32 60 -59 109 -61 109 -1 0 1
-17 5 -37 21 -97 34 -466 19 -543 -5 -28 -7 -30 -8 -10 -2 14 -4 32 -5 40 -2
8 -6 42 -10 75 -7 65 -10 86 -27 185 -17 93 -24 100 -38 33 -15 -69 -81 -211
-110 -237 l-21 -19 -1 59 c-1 75 2 160 6 199 2 17 6 62 10 100 3 39 16 121 29
182 l22 113 -22 67 c-12 38 -23 64 -23 58 -1 -5 -3 -53 -6 -105 -6 -137 -46
-259 -118 -365 -37 -55 -37 -58 -23 215 12 212 13 252 17 385 2 117 2 122 -26
163 -15 23 -29 41 -30 40 -1 -2 1 -27 5 -56 27 -205 -28 -471 -116 -559 -28
-27 -41 -25 -26 4 35 66 27 469 -14 703 -2 14 -7 45 -10 69 -3 25 -7 47 -9 51
-2 3 -6 26 -10 50 -4 25 -17 88 -29 141 -21 89 -27 102 -92 186 -38 50 -70 90
-72 88 -2 -2 5 -20 16 -42 26 -50 79 -213 93 -283 41 -210 39 -416 -6 -593 -8
-32 -15 -61 -15 -63 0 -2 -4 -4 -9 -4 -5 0 -12 28 -16 63 -4 34 -9 71 -11 82
-2 11 -6 42 -9 69 -4 27 -8 56 -10 65 -1 9 -6 36 -9 61 -15 107 -24 146 -25
115 -8 -119 -27 -222 -58 -303 -19 -50 -26 -47 -28 11 -4 67 -16 210 -20 232
-3 11 -7 38 -10 60 -3 22 -8 56 -11 75 -6 40 -55 260 -57 260 -1 0 -3 -66 -4
-148 -1 -81 -6 -160 -11 -177 -8 -27 -11 -20 -36 75 -50 187 -110 400 -111
397 -1 -1 -5 -49 -8 -107 -3 -58 -10 -116 -15 -130 -9 -25 -9 -25 -17 10 -12
50 -10 43 -53 190 -62 208 -83 274 -93 284 -18 20 -18 -3 1 -58 29 -86 42
-160 46 -278 6 -174 -2 -172 -80 25 -77 190 -118 278 -138 294 -7 6 -37 13
-66 16 l-52 6 5 -57 c2 -31 7 -106 10 -167 3 -60 7 -141 10 -180 5 -84 13
-227 20 -350 2 -49 7 -142 10 -205 9 -180 13 -281 19 -480 4 -102 9 -214 11
-250 3 -36 8 -94 10 -130 5 -65 11 -133 20 -200 2 -19 7 -60 10 -90 4 -30 8
-66 10 -80 2 -14 6 -45 10 -70 5 -44 13 -99 20 -150 2 -14 7 -45 10 -70 3 -25
8 -56 10 -70 2 -14 11 -77 20 -140 9 -63 18 -126 20 -140 3 -14 7 -50 10 -80
4 -30 8 -62 11 -70 2 -8 6 -38 9 -65 3 -28 7 -59 9 -70 2 -11 7 -54 11 -95 3
-41 8 -82 10 -90 2 -8 7 -53 10 -100 4 -47 8 -96 10 -110 12 -80 24 -429 25
-702 l0 -207 117 -84 c170 -121 204 -144 338 -228 469 -295 997 -531 1515
-679 58 -17 128 -37 155 -45 129 -38 542 -120 710 -140 28 -4 61 -8 75 -10 38
-6 224 -24 318 -31 l84 -6 -6 124 c-4 67 -9 164 -11 213 -9 169 -22 353 -31
435 -2 19 -6 73 -9 120 -3 47 -8 101 -10 120 -2 19 -7 80 -10 135 -3 55 -8
111 -10 125 -2 14 -7 70 -10 125 -3 55 -8 127 -10 160 -3 33 -7 110 -11 170
-3 61 -7 135 -9 165 -24 390 -24 1029 0 1480 3 52 7 142 10 200 9 177 15 292
20 370 2 41 7 118 10 170 3 52 8 122 10 155 3 33 7 94 10 135 14 209 24 324
39 465 3 22 8 67 11 100 4 33 10 76 15 95 5 19 11 66 15 103 3 37 8 76 10 85
1 9 6 49 9 87 4 39 9 81 11 95 2 14 6 54 10 90 3 36 7 79 9 95 3 17 7 59 10
95 4 36 8 81 11 100 9 78 15 138 21 205 3 39 7 81 9 95 2 14 7 59 10 100 4 41
9 78 12 83 2 4 2 7 -1 7 -3 0 -27 -41 -52 -92 -46 -91 -122 -218 -130 -218 -3
0 -2 18 1 40 3 22 7 59 11 83 3 23 7 49 9 57 2 8 7 31 10 50 18 113 108 396
165 525 12 28 24 64 25 80 2 17 6 64 10 105 3 41 9 78 11 82 3 4 3 8 0 8 -3 0
-36 -60 -72 -132 -105 -211 -226 -412 -302 -503 l-25 -30 6 56 c4 30 8 62 11
70 3 8 7 28 10 44 13 90 101 303 168 410 50 79 117 165 170 221 29 29 51 62
53 80 3 16 7 43 10 59 2 17 7 50 10 75 3 25 7 56 10 69 2 14 1 20 -4 15 -8 -8
-261 -426 -285 -469 -23 -42 -211 -342 -238 -379 l-28 -39 6 34 c4 19 18 72
31 118 87 307 246 610 457 877 45 56 66 92 70 119 8 49 6 46 -77 -80 -77 -118
-210 -297 -287 -386 -83 -96 -193 -210 -197 -205 -5 5 75 183 122 272 112 208
292 478 424 633 47 56 57 74 68 130 19 101 17 102 -35 16 -82 -136 -204 -302
-298 -404 -72 -79 -165 -170 -198 -193 l-28 -21 7 24 c9 30 92 198 130 265 79
136 198 300 318 437 32 37 57 67 53 67 -3 0 1 19 9 43 l15 42 -52 -55 c-236
-251 -335 -343 -472 -445 l-39 -29 22 42 c56 111 196 309 328 464 40 47 73 89
73 93 0 3 -35 -27 -77 -68 -132 -127 -293 -260 -293 -242 0 35 189 302 345
490 95 113 119 140 212 236 46 47 52 58 39 68 -12 10 -27 -3 -88 -76 -105
-126 -279 -297 -387 -381 -52 -40 -96 -70 -99 -67 -12 11 176 303 248 385 12
14 34 41 48 60 15 18 59 68 99 109 39 42 70 78 67 80 -2 2 -54 -43 -116 -100
-62 -57 -133 -123 -158 -145 -90 -83 -170 -146 -163 -127 32 84 240 372 339
468 22 22 46 50 53 62 12 24 15 143 4 143 -5 0 -35 -32 -68 -71z"/>
<path d="M8842 9526 c-20 -42 -20 -48 -7 -93 14 -51 34 -166 37 -221 3 -41 14
-51 14 -14 0 32 12 180 20 240 3 30 -1 55 -15 87 -11 25 -21 45 -23 45 -2 0
-14 -20 -26 -44z"/>
<path d="M9915 9479 c11 -13 23 -26 26 -29 21 -18 125 -163 146 -203 13 -27
26 -47 29 -45 2 3 -26 58 -63 122 -54 95 -76 124 -113 149 -40 27 -43 28 -25
6z"/>
<path d="M8589 9303 c-2 -70 -9 -138 -19 -186 -6 -27 -8 -52 -6 -55 2 -4 7
-45 11 -92 4 -47 9 -88 11 -91 5 -9 16 -236 16 -354 0 -135 -13 -339 -27 -414
-2 -9 -6 -40 -10 -69 -7 -47 -21 -80 -22 -49 0 12 -10 114 -17 172 -2 17 -7
59 -11 95 -4 36 -8 76 -10 90 -2 14 -6 52 -10 85 -3 33 -8 76 -10 95 -2 19 -7
62 -11 95 -10 93 -11 107 -18 160 -4 28 -9 66 -11 85 -3 19 -9 67 -14 105 -6
39 -13 93 -16 120 -11 87 -12 89 -46 64 -19 -13 -28 -27 -25 -37 3 -10 17 -93
31 -187 14 -93 28 -181 30 -195 2 -14 6 -45 10 -70 3 -25 8 -56 10 -70 2 -14
7 -52 10 -85 3 -33 8 -73 10 -90 4 -29 11 -94 19 -185 4 -39 13 -190 21 -328
3 -73 -14 -33 -66 154 -28 98 -52 181 -55 183 -2 2 -4 -36 -4 -85 0 -152 -18
-314 -52 -454 -11 -47 -20 -91 -21 -98 0 -14 -10 -7 -13 11 -1 7 -5 68 -9 137
-4 69 -8 139 -10 155 -2 17 -6 75 -10 130 -3 55 -8 116 -10 135 -2 19 -6 75
-10 124 -4 49 -8 96 -10 105 -1 9 -6 52 -10 95 -4 43 -8 86 -10 95 -1 9 -6 45
-10 81 -4 36 -9 74 -10 85 -1 11 -3 31 -5 45 -2 22 -3 20 -11 -10 -4 -19 -14
-62 -20 -95 -11 -57 -12 -58 -20 -30 -5 17 -11 55 -15 85 -3 30 -8 57 -9 60
-2 3 -6 37 -10 75 -4 39 -8 81 -10 95 -1 15 -10 26 -20 28 -15 4 -17 -1 -10
-35 4 -21 9 -49 11 -63 3 -14 9 -48 15 -76 5 -28 12 -64 14 -80 8 -49 15 -88
20 -114 3 -13 7 -40 10 -60 3 -20 7 -45 9 -55 2 -11 9 -56 16 -100 7 -44 14
-89 16 -100 2 -11 7 -36 10 -55 4 -19 8 -44 11 -55 2 -11 6 -38 9 -60 3 -22 9
-56 14 -75 4 -19 11 -66 15 -105 4 -38 9 -77 10 -86 19 -99 23 -581 5 -562 -3
2 -10 26 -16 51 -6 26 -26 108 -44 182 -17 74 -34 146 -36 160 -3 14 -9 41
-14 60 -5 19 -11 49 -14 65 -3 17 -10 50 -15 75 -5 25 -39 197 -77 383 -58
288 -70 334 -80 315 -13 -23 -12 -24 -61 152 l-10 35 -7 -36 c-6 -27 2 -66 33
-170 52 -174 105 -378 131 -504 12 -55 23 -107 25 -115 13 -58 37 -178 40
-195 1 -11 7 -47 13 -80 14 -79 17 -95 48 -305 2 -14 6 -50 9 -80 2 -30 7 -64
9 -75 3 -17 6 -58 20 -253 3 -49 -8 -28 -49 93 -21 61 -39 112 -41 114 -2 2
-1 -44 2 -103 3 -58 3 -106 0 -106 -8 0 -19 28 -65 163 l-37 109 0 -149 c1
-200 -13 -322 -54 -485 -14 -53 -30 -63 -31 -20 0 15 -2 36 -3 47 -2 11 -6 56
-10 100 -4 44 -9 94 -11 110 -2 17 -7 64 -10 105 -3 41 -7 89 -10 105 -2 17
-7 68 -10 115 -4 47 -8 92 -10 100 -2 8 -6 44 -9 80 -14 140 -26 190 -26 119
-1 -37 -9 -139 -15 -179 -2 -14 -4 -41 -4 -60 -2 -33 -2 -34 -16 -16 -8 11
-15 16 -15 10 0 -5 -7 -45 -14 -89 -23 -129 -29 -203 -26 -330 6 -344 6 -337
-15 -550 -2 -22 -7 -71 -10 -110 -3 -38 -8 -88 -10 -110 -2 -22 -7 -71 -10
-110 -3 -38 -7 -88 -10 -110 -2 -22 -7 -71 -10 -110 -3 -38 -8 -88 -10 -110
-3 -22 -7 -65 -9 -95 -12 -141 -18 -197 -21 -220 -2 -14 -7 -61 -10 -105 -3
-44 -8 -91 -10 -105 -2 -14 -7 -54 -10 -90 -3 -36 -10 -90 -15 -121 -16 -89
-19 -179 -27 -774 -10 -738 -9 -889 12 -1410 2 -55 6 -167 10 -250 11 -277 15
-369 20 -480 3 -60 8 -162 10 -225 3 -63 14 -173 25 -245 11 -71 31 -204 45
-295 14 -91 27 -174 29 -186 2 -12 7 -45 11 -75 3 -30 8 -61 10 -69 2 -8 7
-35 10 -60 3 -25 8 -52 10 -60 2 -8 7 -37 10 -65 3 -27 7 -59 9 -70 2 -11 7
-40 11 -65 4 -25 8 -52 10 -60 12 -74 18 -116 17 -123 -1 -4 2 -16 7 -26 8
-14 20 -17 58 -15 113 5 261 15 298 19 22 3 85 9 140 15 55 6 112 12 125 15
14 2 41 6 60 9 121 18 248 40 331 57 52 11 104 21 115 23 10 2 39 9 64 16 25
7 52 13 60 15 205 41 727 217 970 327 25 11 74 34 110 50 395 180 854 461
1185 725 l110 88 -5 100 c-9 175 0 849 15 1185 11 239 17 370 20 400 2 19 6
78 10 130 4 52 8 101 10 110 1 8 6 44 9 80 4 36 9 79 11 95 2 17 6 75 10 130
13 219 28 357 55 513 12 70 69 323 75 332 6 9 49 223 74 360 25 140 26 145 51
300 12 69 23 136 26 150 2 14 7 46 10 73 l6 47 -36 0 c-51 0 -103 24 -142 65
l-33 35 -30 -36 c-16 -20 -32 -49 -36 -63 -4 -14 -23 -73 -43 -131 -29 -84
-37 -100 -42 -80 -3 14 -6 42 -5 63 1 20 0 37 -1 37 -2 0 -15 -17 -29 -37 -24
-35 -25 -36 -26 -13 0 14 -12 -22 -26 -80 -24 -95 -27 -102 -35 -75 -9 32 -13
268 -4 323 2 17 3 32 1 32 -9 0 -35 -59 -40 -91 -15 -92 -28 -160 -45 -244 -5
-27 -12 -68 -15 -90 -2 -22 -9 -62 -15 -90 -14 -69 -18 -97 -19 -117 -2 -40
-19 -14 -29 45 -10 61 -10 383 0 422 3 11 9 40 13 65 3 25 9 53 12 64 3 11 1
16 -5 12 -19 -11 -99 -373 -148 -668 -10 -60 -21 -108 -25 -108 -9 0 -29 116
-29 170 0 97 -15 10 -26 -150 -3 -52 -8 -106 -9 -120 -2 -14 -4 -47 -5 -75
l-2 -50 -18 40 c-10 22 -21 57 -24 79 -4 21 -8 42 -11 46 -8 12 -19 146 -19
228 0 39 -3 72 -7 72 -6 0 -11 -36 -25 -175 -3 -27 -7 -65 -10 -83 -4 -32 -13
-207 -19 -357 -5 -128 -4 -125 -27 -75 -33 75 -58 189 -63 290 -3 52 -5 100
-6 105 0 6 -5 -3 -11 -20 -6 -18 -10 -145 -9 -317 1 -159 -1 -288 -4 -288 -10
0 -53 101 -71 167 -9 35 -19 62 -21 60 -3 -4 -18 -79 -37 -182 -3 -16 -8 -55
-12 -85 -3 -30 -8 -57 -10 -59 -3 -3 -8 103 -6 129 0 3 3 52 6 110 3 58 8 114
10 125 2 11 7 43 10 70 4 28 9 64 12 80 l5 30 -16 -30 c-72 -132 -99 -177
-135 -225 l-42 -55 5 75 c5 82 35 178 78 252 16 26 27 48 24 48 -2 0 -20 -17
-39 -37 l-35 -37 10 44 c34 152 153 354 282 481 30 30 64 73 76 96 19 38 10
31 -81 -61 -57 -56 -125 -117 -151 -135 l-48 -33 16 39 c33 80 140 242 205
311 11 12 16 22 11 22 -5 0 -12 -4 -16 -10 -3 -5 -19 -19 -36 -31 l-31 -21 33
63 c79 157 210 314 354 425 42 31 73 59 71 61 -2 3 -44 -23 -93 -56 -49 -33
-101 -65 -114 -71 -13 -6 -48 -43 -76 -81 -55 -73 -64 -73 -38 1 8 23 15 45
15 47 0 3 -20 -11 -45 -31 -25 -21 -45 -34 -45 -31 0 35 153 273 208 326 10 8
31 31 47 49 24 28 20 26 -20 -10 -111 -98 -303 -288 -444 -440 -33 -36 -61
-61 -61 -56 0 11 58 132 87 181 20 33 11 27 -51 -37 -42 -43 -76 -73 -76 -67
0 21 91 199 120 234 7 8 9 15 4 14 -9 0 -34 -30 -191 -226 -54 -67 -99 -120
-101 -119 -4 5 35 110 66 176 31 67 111 194 153 246 64 77 178 187 254 244 46
35 83 66 81 68 -2 2 -24 -2 -47 -8 -64 -17 -185 -114 -343 -275 -127 -129
-187 -208 -365 -480 -33 -50 -33 -50 -26 -15 9 49 12 63 23 104 6 20 8 36 6
36 -3 0 -21 -17 -41 -37 l-36 -38 7 30 c12 51 81 187 133 260 73 102 161 194
252 261 44 32 79 60 77 61 -2 2 -31 -7 -65 -19 -55 -20 -78 -37 -179 -138
-199 -197 -340 -388 -449 -610 -32 -65 -62 -119 -67 -119 -7 -1 -4 42 10 129
9 55 51 175 85 243 68 135 200 287 312 362 31 21 57 39 57 41 0 4 -71 -27
-150 -65 -41 -19 -58 -41 -181 -229 -76 -114 -179 -277 -231 -362 -52 -85
-109 -177 -126 -205 l-33 -50 6 42 c3 23 12 65 21 95 8 29 17 71 21 93 l6 40
-42 -45 -42 -45 7 35 c11 60 44 152 75 213 17 31 28 57 25 57 -9 0 -113 -196
-164 -310 -48 -107 -132 -350 -132 -384 -1 -20 -1 -20 -12 -2 -10 19 -6 195 7
261 24 119 85 287 128 349 19 27 19 28 1 18 -10 -6 -33 -25 -50 -44 -33 -34
-46 -69 -213 -557 -44 -129 -83 -236 -86 -239 -12 -12 -8 191 6 270 5 32 11
68 13 80 2 13 10 43 17 68 16 55 14 51 23 75 44 116 45 119 7 71 -42 -52 -142
-368 -165 -521 -4 -22 -8 -47 -11 -55 -2 -8 -6 -37 -10 -65 -20 -159 -24 -171
-42 -120 -16 45 -22 78 -27 148 -2 26 -6 50 -8 52 -2 2 -17 -60 -32 -138 -15
-78 -34 -160 -42 -182 -8 -22 -14 -49 -14 -60 -1 -16 -2 -17 -9 -5 -26 46 -41
228 -27 335 5 38 3 36 -29 -30 -19 -38 -53 -128 -76 -200 -49 -153 -60 -184
-54 -140 17 104 19 116 40 195 21 85 72 234 95 282 25 52 12 47 -35 -15 -80
-105 -171 -220 -202 -256 l-33 -36 16 55 c46 157 133 314 241 430 36 39 36 49
1 27 -12 -8 -34 -18 -47 -22 -23 -7 -22 -5 10 40 74 103 221 240 349 325 36
24 83 64 105 89 22 25 57 62 78 82 20 21 37 40 37 43 0 6 -106 -67 -277 -192
-62 -45 -113 -78 -113 -74 0 19 81 132 141 197 35 38 100 95 143 127 89 66
255 151 331 169 50 12 120 47 111 56 -2 3 -20 0 -39 -6 -19 -7 -43 -13 -53
-15 -11 -2 -37 -9 -59 -15 -22 -5 -53 -12 -70 -15 -16 -3 -52 -10 -80 -15
l-50 -9 29 23 c84 67 431 215 631 269 107 29 218 67 212 72 -1 2 -45 -6 -95
-16 -51 -11 -114 -22 -140 -26 -26 -3 -56 -8 -67 -10 -16 -2 -14 2 10 22 64
53 187 110 315 147 124 36 140 38 299 42 110 3 170 10 260 31 64 14 128 29
144 33 15 3 -73 6 -195 5 -123 0 -243 2 -268 6 l-45 6 40 12 c41 13 199 46
270 58 45 7 55 8 140 19 33 3 70 8 83 10 20 3 116 10 267 20 28 1 81 10 120
20 38 9 82 17 97 17 52 2 18 16 -79 33 -128 22 -140 25 -122 35 8 4 32 11 54
15 25 4 52 19 75 42 47 47 150 114 230 148 36 16 74 37 85 47 19 19 19 20 1
33 -13 10 -25 11 -43 4 -39 -15 -210 -99 -293 -145 -170 -93 -210 -113 -210
-104 0 14 70 102 114 144 22 21 63 54 91 72 55 37 53 39 -26 24 -30 -6 -76
-13 -104 -16 -27 -4 -53 -8 -57 -11 -13 -7 -9 12 5 26 13 13 -112 -43 -150
-67 -13 -8 -23 -11 -23 -7 0 4 -6 3 -12 -2 -21 -16 -48 -23 -48 -12 0 6 36 46
80 90 l80 79 -77 -40 c-101 -51 -175 -82 -181 -76 -11 12 83 113 163 174 17
13 26 21 20 19 -5 -2 -26 -11 -45 -20 -115 -52 -195 -85 -199 -82 -2 3 9 21
25 42 71 93 171 166 287 208 37 14 56 25 47 29 -8 3 -38 14 -66 24 l-51 19
-79 -47 c-44 -25 -117 -68 -164 -95 -47 -26 -158 -97 -248 -157 l-163 -108 27
50 c42 77 125 171 199 227 69 51 226 134 280 147 38 10 23 19 -65 38 l-66 15
-79 -58 c-44 -32 -84 -62 -90 -67 -52 -40 -318 -212 -323 -207 -3 3 0 11 6 17
25 25 10 26 -34 1 -25 -14 -47 -23 -49 -21 -10 10 48 107 95 160 53 59 157
133 225 160 96 38 94 36 55 38 -19 1 -47 3 -62 5 -21 3 -41 -9 -95 -58 -134
-121 -329 -326 -416 -437 l-27 -35 0 27 c0 15 11 56 24 92 18 51 21 69 12 81
-10 14 -16 11 -44 -18 l-33 -34 16 -69 c20 -82 31 -294 18 -344 l-9 -35 -42
87 c-23 48 -44 99 -48 113 -14 57 -22 30 -18 -62 9 -213 12 -533 5 -533 -3 0
-7 9 -8 21 -1 11 -7 53 -12 92 -6 40 -13 92 -16 117 -4 25 -8 56 -10 70 -2 14
-7 48 -10 75 -3 28 -7 61 -10 75 -2 14 -7 48 -10 75 -11 95 -25 178 -29 182
-9 9 -56 -81 -75 -142 -24 -75 -60 -159 -83 -188 -17 -22 -15 -37 -19 166 -1
75 -4 137 -6 137 -4 0 -79 -159 -98 -205 -7 -19 -8 -19 -15 5 -11 40 -4 136
16 225 3 13 0 11 -11 -7 -20 -36 -25 -35 -20 2 2 17 0 30 -4 30 -31 0 -161
-277 -161 -342 0 -10 -4 -18 -9 -18 -12 0 16 142 45 224 13 38 40 98 59 133
19 35 35 65 35 67 0 2 -46 -27 -102 -65 -57 -38 -108 -69 -115 -69 -9 0 -9 10
2 41 30 85 97 156 190 200 53 25 61 33 66 63 5 29 3 36 -14 38 -19 3 -19 4 1
29 11 14 23 43 26 65 3 21 8 59 11 84 3 25 11 74 16 110 6 36 12 78 14 94 3
15 7 35 9 45 3 9 8 32 11 51 5 29 28 119 39 155 2 6 7 25 11 42 11 48 22 32
35 -50 7 -39 14 -81 16 -92 3 -11 5 -76 6 -145 1 -69 3 -115 6 -102 5 30 18
28 26 -3 4 -14 11 -23 16 -20 6 4 8 10 5 15 -2 4 -7 25 -10 46 -17 115 -47
295 -55 334 -5 25 -12 63 -15 85 -8 46 -11 65 -29 155 l-14 65 -2 -47 c-3 -59
-4 -73 -25 -238 -15 -125 -120 -444 -153 -464 -8 -5 -7 174 1 250 3 18 3 34 1
34 -4 0 -44 -86 -44 -94 0 -4 -14 -27 -30 -54 l-31 -47 5 40 c3 22 8 64 11 93
3 28 7 76 10 105 3 28 8 68 10 87 12 102 28 268 50 515 5 60 14 190 20 300 3
44 7 107 11 140 4 48 -1 79 -22 153 -15 50 -30 92 -33 92 -3 0 -6 -78 -6 -173
-1 -94 -4 -224 -8 -287 -10 -151 -12 -171 -33 -340 -16 -123 -50 -277 -54
-245 -1 6 -3 19 -4 30 -6 43 -18 131 -21 146 -3 16 -12 131 -20 253 -3 38 -6
70 -8 72 -2 2 -12 -24 -22 -59 -16 -53 -20 -58 -25 -37 -7 27 -13 182 -13 323
l0 88 -18 -28 c-11 -15 -19 -36 -19 -46 0 -30 -62 -179 -71 -170 -4 4 -9 49
-11 100 -2 50 -6 89 -9 87 -3 -1 -11 -28 -18 -59 -7 -31 -14 -55 -16 -53 -2 2
-6 32 -9 68 -4 36 -9 81 -11 100 -2 19 -7 62 -10 95 -11 127 -17 181 -20 205
-2 14 -7 61 -11 105 -3 44 -8 87 -10 95 -1 8 -3 32 -3 53 -1 30 -5 37 -21 37
-16 0 -20 -7 -21 -37z"/>
<path d="M11504 9285 c20 -71 51 -158 70 -191 l16 -29 -5 30 c-22 136 -33 174
-63 206 l-31 34 13 -50z"/>
<path d="M11232 9293 c55 -119 76 -153 93 -157 25 -6 156 -94 172 -115 16 -21
16 -9 1 26 -11 24 -81 119 -99 133 -4 3 -17 13 -30 22 -13 10 -48 36 -78 58
-55 40 -66 46 -59 33z"/>
<path d="M4650 9223 c-25 -14 -94 -50 -155 -80 -60 -29 -121 -59 -134 -66 -21
-11 -97 -121 -120 -174 -6 -11 -15 -24 -20 -28 -6 -3 -11 -11 -11 -16 0 -5 14
7 32 28 45 53 130 134 135 129 3 -2 -14 -50 -36 -106 -22 -56 -38 -100 -36
-98 1 1 19 23 40 48 127 155 130 159 263 293 53 53 94 97 91 97 -2 -1 -24 -13
-49 -27z"/>
<path d="M10130 9169 c0 -8 4 -19 8 -24 5 -6 17 -32 27 -60 21 -60 25 -65 48
-56 16 6 13 14 -24 71 -49 78 -59 89 -59 69z"/>
<path d="M6244 9122 c-49 -43 -67 -57 -135 -102 -35 -24 -107 -86 -159 -138
-52 -52 -117 -112 -143 -134 -46 -39 -47 -40 -35 -12 19 44 136 243 172 294
44 62 54 82 20 40 -30 -35 -210 -286 -319 -443 -33 -47 -63 -86 -67 -87 -11 0
23 132 57 220 17 47 35 94 39 105 4 11 -11 -11 -33 -49 -65 -107 -227 -347
-265 -391 l-35 -40 5 52 c3 29 11 74 19 100 l14 48 -56 -60 -55 -60 61 117
c34 65 61 120 61 123 0 3 -15 4 -32 1 -18 -3 -63 -8 -100 -11 -37 -3 -77 -8
-90 -10 -13 -2 -53 -9 -90 -15 -37 -5 -77 -14 -90 -19 -20 -9 -18 -10 16 -10
58 -1 154 -31 209 -64 54 -33 58 -43 20 -44 -45 -1 -263 -22 -294 -28 -9 -2
-40 -6 -70 -10 -30 -4 -67 -13 -84 -19 -28 -12 -26 -13 48 -19 58 -4 94 -13
140 -36 61 -29 114 -67 106 -76 -5 -4 -85 -9 -312 -21 -142 -7 -154 -8 -162
-16 -3 -3 23 -5 57 -5 111 -1 176 -17 255 -65 29 -18 53 -36 53 -40 0 -4 -24
-8 -52 -9 -29 0 -73 -2 -98 -4 -150 -12 -188 -16 -210 -19 -14 -3 -43 -8 -65
-11 -22 -4 -53 -9 -70 -12 -16 -2 -43 -17 -58 -32 l-29 -28 104 1 c74 0 119
-5 158 -18 54 -18 145 -65 138 -71 -3 -3 -34 -7 -183 -21 -33 -3 -94 -12 -135
-21 -41 -8 -79 -16 -85 -17 -5 -1 -40 -10 -77 -20 -52 -15 -73 -26 -91 -50
-40 -53 -39 -55 9 -30 111 59 298 87 432 64 40 -6 72 -16 72 -21 0 -4 -19 -13
-42 -19 -59 -15 -275 -87 -318 -107 -99 -44 -237 -114 -255 -128 -19 -15 -19
-16 5 -4 13 7 56 20 94 30 127 33 281 13 378 -47 57 -36 56 -44 -9 -45 -186
-3 -334 -28 -510 -85 l-113 -37 0 -37 c0 -20 3 -39 6 -43 3 -3 29 7 58 23 153
86 334 121 485 95 18 -4 30 -10 25 -15 -5 -4 -74 -35 -154 -68 -162 -67 -311
-134 -307 -138 1 -1 27 4 57 12 30 8 88 14 129 14 76 0 195 -26 186 -40 -3 -5
-24 -11 -48 -15 -49 -9 -214 -64 -272 -91 -26 -13 -41 -27 -43 -42 -4 -25 -4
-25 68 -8 30 7 87 14 125 15 65 2 68 1 50 -13 -11 -8 -23 -16 -27 -16 -12 0
-224 -129 -235 -142 -5 -7 -13 -24 -16 -36 -6 -27 -18 -30 128 23 98 36 301
89 380 99 73 10 245 19 245 13 0 -9 -68 -37 -379 -158 -157 -61 -289 -114
-293 -118 -4 -4 43 3 105 16 61 12 136 25 165 29 32 4 84 22 135 48 149 77
373 134 529 136 46 0 47 1 64 45 9 25 20 45 24 45 5 0 20 53 35 118 30 127 39
161 93 327 101 317 268 667 450 944 67 102 154 227 189 271 101 127 240 285
327 371 52 52 52 67 0 21z"/>
<path d="M11690 9125 c0 -6 5 -26 10 -45 21 -70 29 -217 16 -276 -2 -11 11
-65 30 -120 37 -106 37 -107 18 51 -3 28 -7 115 -9 193 l-2 144 -32 31 c-17
18 -31 27 -31 22z"/>
<path d="M4385 8827 c-134 -136 -155 -162 -199 -247 -27 -52 -82 -151 -123
-219 -41 -68 -77 -136 -79 -150 -2 -14 -6 -37 -9 -51 -5 -22 -4 -23 6 -7 6 11
12 24 13 30 6 31 50 117 60 117 6 0 34 35 63 78 49 74 75 108 135 176 l28 31
-16 -55 c-9 -30 -24 -79 -35 -109 -22 -65 -20 -74 6 -23 22 42 106 172 111
172 2 0 1 -17 -2 -37 l-5 -38 40 60 c22 33 48 70 56 82 9 12 18 39 21 60 10
85 27 147 60 221 13 30 23 56 21 58 -1 2 -70 -65 -152 -149z"/>
<path d="M13060 8916 c0 -4 7 -20 15 -36 9 -17 20 -41 25 -56 9 -22 8 -25 -9
-19 -47 15 -166 25 -174 14 -2 -2 -21 -25 -42 -52 -21 -26 -36 -49 -34 -52 2
-2 30 5 61 16 32 10 68 17 80 15 13 -3 28 -5 35 -5 7 -1 10 -8 7 -16 -4 -10 0
-15 10 -15 17 0 100 -40 127 -62 9 -7 21 -24 29 -37 12 -24 12 -24 -21 -17
-86 18 -120 21 -209 21 -58 -1 -116 -7 -150 -18 -52 -15 -57 -20 -89 -77 l-33
-61 49 25 c97 51 214 55 311 11 63 -29 59 -40 -14 -44 -113 -5 -387 -102 -421
-148 -15 -19 -17 -37 -5 -29 5 3 24 8 43 11 19 3 59 10 90 15 92 17 209 -5
287 -52 17 -11 32 -21 32 -23 0 -1 -40 -3 -90 -3 -96 -1 -234 -23 -297 -48
-97 -38 -160 -75 -172 -100 -16 -36 -6 -42 22 -16 71 67 242 80 345 28 29 -15
52 -30 52 -35 0 -5 -21 -12 -47 -16 -27 -5 -54 -9 -61 -11 -38 -7 -167 -16
-231 -16 -73 1 -75 0 -113 -37 -53 -54 -48 -66 15 -35 137 70 294 70 381 0
l27 -21 -93 -1 c-135 -1 -254 -47 -368 -143 l-35 -30 60 21 c77 26 185 34 256
19 55 -12 108 -37 78 -38 -162 -2 -458 -135 -506 -226 -18 -35 -10 -31 57 24
78 66 281 144 331 127 10 -3 -68 -67 -221 -177 -25 -18 -36 -30 -25 -27 49 14
116 23 156 20 77 -6 78 -13 4 -46 -94 -41 -206 -109 -285 -173 -94 -76 -110
-93 -103 -110 5 -14 8 -14 29 0 13 8 24 13 24 10 0 -3 14 2 30 10 43 22 148
30 194 15 34 -11 41 -10 67 9 39 29 42 27 18 -13 -31 -52 -10 -50 51 6 86 79
226 181 323 233 48 26 90 45 92 43 3 -2 -89 -98 -203 -212 -213 -214 -214
-216 -66 -119 18 12 18 12 0 6 -16 -5 -17 -3 -8 13 14 27 165 170 237 225 131
100 319 209 405 234 25 7 25 7 -5 -26 -47 -52 -96 -101 -138 -137 -21 -17 -36
-32 -33 -32 2 0 33 16 68 36 65 37 215 114 221 114 3 0 8 -19 12 -42 4 -24 9
-50 11 -58 2 -8 8 -42 13 -75 6 -33 13 -69 15 -80 2 -11 7 -45 11 -75 4 -30 9
-70 12 -88 5 -34 4 -34 -29 -27 -18 3 -41 9 -50 11 -34 10 -18 -6 32 -31 28
-14 53 -31 55 -38 8 -24 13 -87 6 -87 -3 0 -38 11 -76 25 -279 102 -464 165
-481 165 -10 0 -30 -9 -44 -20 l-25 -20 35 2 c19 0 55 -2 80 -6 25 -4 58 -10
74 -12 88 -14 294 -103 303 -130 4 -11 -26 -10 -127 1 l-55 6 68 -35 c72 -37
184 -113 206 -140 14 -17 -5 -13 -154 34 -133 41 -309 90 -469 131 l-168 42
-34 -18 c-19 -10 -33 -19 -32 -21 2 -1 26 -5 53 -8 137 -18 177 -25 283 -53
34 -9 62 -20 62 -24 0 -5 -3 -8 -7 -7 -5 1 -28 -2 -53 -7 -25 -4 -60 -9 -77
-10 -50 -2 -47 -9 10 -30 62 -22 130 -59 135 -73 2 -6 -13 -8 -38 -5 -22 3
-40 3 -40 0 0 -3 17 -16 37 -28 36 -23 36 -23 12 -29 -59 -16 -286 29 -384 77
-24 11 -19 5 20 -30 35 -32 65 -48 100 -57 28 -6 64 -17 80 -24 l30 -13 -43
-7 -43 -8 58 -35 c122 -72 116 -74 -98 -37 -107 19 -207 37 -224 40 -16 2 -43
0 -60 -5 -29 -9 -29 -9 15 -11 25 -1 56 -3 70 -6 136 -24 150 -28 139 -38 -2
-3 -17 -7 -32 -10 -14 -2 -31 -7 -35 -10 -5 -3 -25 -6 -45 -8 -49 -3 -34 -15
28 -23 82 -10 106 -15 185 -34 83 -20 77 -25 -37 -37 -71 -8 -89 -20 -31 -22
24 -1 53 -4 65 -6 11 -3 43 -8 70 -11 26 -4 84 -16 128 -27 44 -11 90 -22 103
-25 12 -3 22 -9 22 -13 0 -9 -95 -24 -143 -23 -23 0 -31 -11 -9 -13 4 0 34 -4
67 -8 58 -8 73 -10 125 -21 14 -2 41 -7 60 -10 66 -11 125 -26 210 -52 l85
-27 -43 -6 c-85 -13 -390 -1 -524 20 -27 4 -48 5 -48 3 0 -2 33 -19 73 -38 49
-23 88 -35 118 -35 24 0 73 -4 109 -9 36 -5 85 -12 110 -15 42 -6 93 -16 228
-46 l53 -12 -3 -36 -3 -37 -60 1 c-57 1 -129 8 -205 20 -27 4 -32 3 -20 -6 49
-36 91 -48 186 -55 95 -6 102 -5 106 13 5 17 14 19 79 18 41 -1 88 1 104 4 27
5 21 9 -58 38 -48 18 -95 32 -103 32 -15 0 -17 6 -16 65 3 107 0 536 -2 580
-6 79 -17 217 -20 250 -2 17 -2 33 0 37 3 4 34 -4 69 -18 97 -36 107 -32 55
21 -25 25 -66 60 -92 78 -43 29 -53 43 -45 65 2 7 54 5 107 -3 25 -4 25 -4 -5
22 -20 18 -23 24 -10 19 11 -5 79 -30 150 -56 204 -75 221 -75 138 0 -89 79
-276 190 -322 190 -8 0 -11 3 -8 6 6 6 209 -60 282 -91 104 -44 204 -85 210
-85 4 0 0 12 -10 26 l-17 26 49 -28 c26 -16 80 -47 118 -70 39 -24 72 -39 73
-33 10 26 -137 183 -231 248 -63 43 -201 107 -256 120 -48 10 -64 21 -35 22
10 0 27 2 37 4 57 11 196 15 218 6 59 -22 296 -213 458 -368 48 -45 87 -80 89
-78 7 7 -40 123 -70 173 -44 72 -125 161 -198 216 -33 24 -57 47 -53 49 20 12
104 -24 163 -68 113 -86 283 -229 378 -320 53 -51 92 -81 92 -72 0 28 -39 116
-77 175 -20 31 -67 88 -104 125 -44 44 -60 66 -46 61 57 -17 212 -97 300 -156
53 -36 97 -62 97 -57 0 4 -6 12 -14 16 -8 4 -33 25 -55 46 -114 105 -317 223
-468 270 l-77 25 164 1 c224 2 221 1 142 44 -146 79 -384 92 -547 30 -33 -13
-62 -17 -85 -13 -19 3 -50 5 -67 4 -18 -1 -33 0 -33 1 0 2 30 13 68 26 83 27
189 76 222 102 l25 19 -105 -6 c-212 -11 -403 -59 -584 -146 -47 -23 -91 -40
-97 -38 -6 2 2 10 18 18 15 8 39 22 53 31 14 9 52 33 85 54 79 51 177 126 172
132 -11 10 -225 -64 -380 -131 -42 -19 -39 -22 -57 64 -16 80 -40 175 -62 254
-11 38 -21 76 -23 85 -9 44 -100 323 -141 432 -26 68 -48 134 -49 147 -2 13
-8 29 -14 35 -5 7 -25 50 -45 95 l-34 82 40 -22 c22 -13 65 -49 94 -81 l54
-58 0 53 c0 55 -35 133 -76 170 -42 37 -174 85 -174 64z"/>
<path d="M5290 8848 c-86 -27 -94 -32 -98 -54 -2 -17 4 -19 60 -19 52 -1 70
-5 106 -29 23 -16 44 -27 46 -25 24 30 87 132 83 136 -15 15 -137 9 -197 -9z"/>
<path d="M7446 8824 c-21 -24 -37 -46 -35 -48 2 -2 23 18 47 45 24 27 40 49
35 48 -4 0 -26 -21 -47 -45z"/>
<path d="M10515 8741 c7 -44 12 -51 30 -45 16 6 11 21 -19 59 -15 19 -16 18
-11 -14z"/>
<path d="M10691 8727 c7 -15 25 -27 49 -33 36 -10 37 -10 27 8 -10 16 -64 48
-81 48 -3 0 -1 -10 5 -23z"/>
<path d="M9350 8554 c0 -5 6 -34 14 -64 16 -62 38 -168 36 -172 -1 -2 4 -16
10 -32 6 -16 15 -63 21 -105 8 -61 18 -88 49 -136 61 -94 134 -249 185 -390
50 -138 52 -142 61 -132 6 5 -17 73 -47 142 -4 11 -27 72 -50 135 -22 63 -63
174 -89 245 -26 72 -78 216 -115 320 -67 187 -75 208 -75 189z"/>
<path d="M2550 8356 c0 -2 7 -7 16 -10 8 -3 12 -2 9 4 -6 10 -25 14 -25 6z"/>
<path d="M7780 8338 c-1 -33 -9 -91 -26 -182 -14 -79 -18 -152 -4 -86 4 19 8
26 9 15 0 -11 22 -60 47 -110 33 -64 44 -80 40 -55 -13 69 -49 369 -50 418 -1
12 -4 22 -8 22 -5 0 -8 -10 -8 -22z"/>
<path d="M11443 8230 c4 -14 7 -35 7 -47 0 -13 4 -23 9 -23 10 0 -3 77 -14 88
-4 4 -5 -4 -2 -18z"/>
<path d="M11464 8060 c1 -90 3 -98 34 -143 17 -26 32 -53 32 -59 0 -6 2 -9 5
-6 4 3 -4 34 -15 69 -12 34 -30 101 -39 148 l-18 86 1 -95z"/>
<path d="M11605 8006 c14 -44 27 -98 31 -120 3 -22 7 -43 9 -46 2 -3 6 -45 10
-95 7 -90 9 -96 75 -210 13 -22 30 -53 38 -68 8 -16 16 -27 17 -25 2 2 -19
109 -46 238 -51 241 -73 304 -129 370 l-29 35 24 -79z"/>
<path d="M12150 7991 c0 -6 4 -13 10 -16 6 -3 7 1 4 9 -7 18 -14 21 -14 7z"/>
<path d="M9527 7585 c7 -85 14 -107 31 -96 9 6 8 20 -7 67 -11 32 -21 68 -24
79 -3 11 -3 -11 0 -50z"/>
<path d="M4059 7593 c-13 -17 -13 -17 6 -3 11 8 22 16 24 17 2 2 0 3 -6 3 -6
0 -17 -8 -24 -17z"/>
<path d="M4009 7559 c-23 -19 -23 -20 -2 -10 12 6 25 16 28 21 10 16 -1 12
-26 -11z"/>
<path d="M9555 7401 c-7 -6 -6 -81 0 -81 4 0 19 7 35 15 26 13 28 18 19 43 -8
25 -40 38 -54 23z"/>
<path d="M10005 7362 c-12 -2 -38 -31 -63 -70 -24 -37 -65 -92 -92 -122 -43
-48 -58 -70 -47 -70 2 0 27 29 55 64 54 68 140 139 210 175 23 12 42 24 42 27
0 5 -66 2 -105 -4z"/>
<path d="M2440 7337 c-14 -6 -38 -16 -55 -23 -16 -7 -79 -31 -140 -52 -60 -22
-211 -79 -334 -127 -123 -47 -228 -84 -232 -83 -5 2 3 17 18 33 14 17 36 41
47 54 l21 24 -30 -8 c-48 -11 -59 -13 -82 -14 -17 -1 -22 -9 -27 -38 -8 -52
-19 -157 -31 -293 -6 -64 -15 -80 -47 -80 -56 0 -378 -129 -378 -150 0 -6 3
-9 8 -9 4 1 39 1 77 0 l70 -2 -70 -18 c-77 -21 -210 -70 -265 -99 -65 -34
-140 -85 -134 -91 3 -3 35 -6 70 -7 36 -1 67 -4 70 -7 6 -6 -86 -61 -106 -63
-163 -14 -333 -88 -457 -200 -60 -53 -141 -159 -131 -169 6 -6 116 33 166 59
l30 15 -42 -62 c-23 -35 -69 -99 -101 -142 -92 -125 -166 -261 -211 -387 -7
-21 -12 -38 -10 -38 2 0 24 36 50 79 26 44 67 106 92 138 45 58 45 58 39 23
-10 -57 -14 -160 -5 -165 4 -2 41 51 81 119 41 69 76 122 79 119 5 -5 7 -12 9
-44 0 -11 6 -17 11 -14 6 4 75 104 154 223 80 122 157 227 174 240 18 12 32
21 32 19 0 -2 -13 -33 -29 -68 -30 -66 -51 -150 -51 -197 1 -25 4 -24 57 33
30 33 69 76 85 95 l29 35 -6 -37 c-4 -21 -3 -38 0 -38 4 0 65 57 136 126 113
112 127 123 119 93 -6 -19 -13 -56 -16 -84 l-6 -50 57 60 c32 33 71 78 88 100
17 22 34 42 37 45 3 3 37 43 75 90 37 47 88 109 113 138 l45 53 4 117 c3 87 8
120 19 128 13 11 101 27 219 41 22 2 94 6 160 7 69 2 149 10 188 19 38 10 92
20 120 23 29 4 61 10 72 15 18 7 17 8 -5 7 -26 0 -147 8 -260 18 -75 6 -193
23 -198 29 -4 4 115 44 154 51 119 24 184 31 287 33 l117 2 72 45 c40 24 70
44 67 44 -3 0 -47 -9 -99 -21 -52 -11 -106 -23 -120 -25 -14 -3 -50 -9 -80
-15 -30 -5 -73 -12 -95 -16 -40 -5 -40 -5 -22 15 10 11 36 33 58 48 22 15 37
29 35 31 -3 3 -44 -5 -91 -17 -48 -11 -106 -23 -129 -26 l-41 -5 49 46 c98 92
296 184 433 201 58 7 58 9 3 41 -28 17 -40 19 -60 10z"/>
<path d="M13431 7336 c4 -5 23 -9 94 -21 l30 -5 -30 15 c-27 13 -105 22 -94
11z"/>
<path d="M9331 7164 c0 -11 3 -14 6 -6 3 7 2 16 -1 19 -3 4 -6 -2 -5 -13z"/>
<path d="M5323 7000 c0 -25 2 -35 4 -22 2 12 2 32 0 45 -2 12 -4 2 -4 -23z"/>
<path d="M9285 7010 c-10 -11 -16 -22 -13 -25 3 -3 13 6 22 20 20 30 16 32 -9
5z"/>
<path d="M9471 7004 c0 -11 3 -14 6 -6 3 7 2 16 -1 19 -3 4 -6 -2 -5 -13z"/>
<path d="M5308 6869 c-4 -43 1 -52 24 -44 9 4 12 18 10 45 -5 54 -29 53 -34
-1z"/>
<path d="M4967 6840 c-93 -19 -117 -28 -70 -27 15 0 58 -3 94 -6 56 -6 68 -4
73 9 8 22 8 44 -1 43 -5 -1 -48 -9 -96 -19z"/>
<path d="M4996 6662 c42 -31 54 -34 54 -13 0 14 -9 20 -36 23 -33 4 -34 3 -18
-10z"/>
<path d="M2469 6514 c-147 -97 -339 -215 -372 -227 -21 -8 -21 -8 36 77 22 32
33 54 25 50 -7 -5 -54 -36 -103 -70 -93 -62 -278 -174 -290 -174 -11 0 73 113
127 171 68 71 91 101 53 68 -54 -48 -346 -269 -355 -269 -5 0 -7 9 -5 20 6 29
-2 25 -25 -12 -24 -39 -26 -55 -5 -38 20 17 28 8 31 -37 1 -21 5 -85 9 -143
11 -174 20 -263 40 -400 2 -14 7 -47 11 -75 3 -27 8 -52 9 -55 2 -3 7 -33 10
-65 4 -33 9 -63 11 -66 2 -3 6 -20 9 -37 3 -18 7 -47 11 -64 3 -18 10 -53 15
-78 6 -25 13 -55 15 -67 3 -14 -11 -46 -40 -90 -48 -74 -106 -186 -106 -203 0
-6 5 -8 10 -5 6 4 -8 -24 -31 -62 -86 -139 -138 -285 -155 -428 l-6 -50 31 39
c34 42 39 41 16 -4 -44 -86 -99 -376 -67 -356 15 9 118 155 133 189 7 15 15
27 19 27 15 0 -11 -105 -38 -153 -62 -111 -114 -274 -128 -399 -7 -68 -7 -180
0 -213 3 -11 5 -31 5 -45 1 -21 3 -22 15 -10 15 17 81 169 91 213 12 46 20 30
21 -40 1 -64 11 -212 18 -250 2 -10 7 -40 10 -66 19 -128 22 -122 22 46 0 78
3 196 8 262 4 66 7 130 7 143 -1 12 4 22 9 22 6 0 9 -3 8 -7 -4 -21 45 -227
73 -302 28 -76 69 -164 74 -159 17 17 21 264 6 378 -14 103 -14 106 8 79 19
-23 19 -21 16 191 -2 118 -6 233 -9 255 -3 22 -8 76 -11 121 -3 44 -7 91 -10
103 -9 47 -6 107 7 147 12 39 13 31 14 -110 1 -154 10 -220 45 -336 25 -82 42
-120 51 -120 5 0 9 12 10 28 2 37 4 67 11 132 7 57 19 272 21 372 2 72 9 80
25 26 58 -196 242 -616 398 -907 128 -238 387 -636 526 -807 9 -11 57 -71 108
-134 51 -63 98 -120 104 -126 5 -6 44 -49 85 -95 162 -179 456 -464 464 -450
6 9 -2 793 -8 856 -2 22 -7 78 -10 125 -4 47 -9 92 -11 100 -2 8 -7 40 -10 70
-3 30 -10 80 -15 110 -5 30 -12 71 -14 90 -9 61 -16 101 -45 250 -27 133 -33
170 -47 271 -12 86 -6 422 11 554 25 200 25 782 0 1045 -2 25 -7 92 -10 150
-3 58 -8 132 -10 165 -2 33 -7 107 -11 165 -3 58 -7 106 -8 107 -1 1 -22 -5
-46 -13 -79 -27 -171 -3 -237 64 -19 19 -38 30 -43 26 -4 -5 -55 -86 -114
-181 -59 -95 -111 -175 -116 -178 -17 -10 8 159 37 250 21 69 82 189 137 273
25 38 46 73 46 78 0 5 9 20 20 34 32 40 23 42 -27 6 -44 -31 -57 -52 -145
-228 -85 -171 -210 -450 -264 -593 -17 -45 -19 -47 -25 -25 -4 14 -6 74 -5
134 2 97 1 106 -10 80 -38 -85 -56 -128 -94 -224 -53 -134 -118 -288 -133
-319 l-12 -24 -6 29 c-4 16 -7 47 -9 69 -1 35 -6 25 -36 -75 -19 -63 -44 -146
-56 -185 l-22 -70 -11 60 c-6 33 -11 111 -10 173 1 61 1 111 -1 109 -2 -2 -26
-129 -40 -212 -3 -16 -7 -41 -10 -55 -2 -14 -11 -59 -18 -100 -53 -291 -52
-287 -75 -185 -15 68 -19 95 -20 129 -1 16 -3 27 -5 25 -5 -5 -12 -56 -26
-189 -6 -58 -13 -116 -15 -130 -2 -14 -6 -47 -10 -75 -9 -76 -15 -108 -24
-140 l-8 -30 -13 45 c-35 127 -49 229 -49 370 0 80 4 164 8 188 5 23 7 42 5
42 -2 0 -11 -14 -20 -31 -13 -25 -16 -64 -16 -196 0 -91 -4 -161 -8 -156 -17
17 -140 454 -140 497 0 8 19 39 43 68 74 91 71 95 -12 21 -14 -12 -27 -20 -30
-18 -10 11 53 147 98 213 66 95 69 100 48 84 -68 -55 11 86 119 213 62 75 158
172 213 218 39 32 37 33 -29 7 -28 -11 -53 -20 -56 -20 -24 0 179 210 277 287
33 25 59 47 59 49 0 2 -12 -1 -26 -7 -15 -5 -28 -8 -30 -6 -4 3 42 73 60 93
85 92 114 124 130 145 10 13 44 51 75 83 59 62 57 62 -24 11 -130 -83 -407
-245 -420 -245 -9 0 43 70 107 144 55 62 203 190 257 222 30 18 40 38 22 48
-4 3 -73 -38 -152 -90z"/>
<path d="M1623 6500 c-26 -12 -43 -26 -43 -36 0 -9 -31 -47 -69 -84 -107 -106
-189 -233 -222 -342 -7 -25 -6 -27 11 -18 29 16 211 163 239 194 31 33 39 33
43 -1 3 -28 3 -28 28 12 45 73 199 244 245 272 19 11 19 12 -4 12 -17 1 -55
-31 -146 -126 l-122 -128 -2 92 -2 91 57 41 c61 44 56 52 -13 21z"/>
<path d="M11338 6411 c-25 -6 -309 -231 -339 -269 -8 -9 11 4 41 29 81 67 206
152 276 187 67 34 100 63 68 61 -11 -1 -31 -4 -46 -8z"/>
<path d="M12370 6091 c0 -5 10 -22 23 -38 76 -91 160 -243 196 -353 26 -79 26
-82 -4 -45 -14 17 -25 24 -25 17 0 -15 -42 26 -130 128 -95 110 -88 105 -96
77 -4 -17 2 -38 20 -66 29 -46 27 -49 -16 -24 -29 18 -29 18 -48 -7 -13 -17
-16 -29 -9 -42 14 -26 11 -28 -21 -17 -24 9 -44 7 -99 -10 -38 -12 -81 -21
-95 -21 -31 0 -33 -4 -40 -83 -3 -32 -10 -86 -15 -120 -6 -34 -12 -80 -16
-102 -10 -73 -51 -314 -60 -355 -3 -14 -8 -41 -11 -60 -3 -19 -14 -84 -24
-145 -11 -60 -22 -126 -25 -145 -3 -19 -10 -60 -15 -90 -5 -30 -12 -75 -15
-100 -3 -25 -10 -70 -15 -100 -11 -63 -18 -114 -25 -185 -3 -27 -7 -66 -10
-85 -3 -19 -7 -73 -10 -120 -3 -47 -8 -110 -10 -140 -5 -63 -14 -255 -21 -410
-5 -122 -4 -1201 1 -1305 2 -38 4 -89 4 -113 l1 -43 113 114 c106 108 202 210
257 273 161 188 225 267 338 421 45 61 129 183 186 270 327 499 597 1094 756
1668 52 189 125 513 130 575 0 8 11 -2 24 -23 12 -20 25 -40 28 -43 8 -7 -1
95 -12 136 -27 100 -11 76 110 -155 45 -88 85 -162 88 -165 2 -3 2 34 -1 81
-6 73 -34 194 -62 264 -5 11 -6 18 -3 15 9 -8 121 -217 184 -340 32 -63 66
-128 77 -145 l19 -30 -6 90 c-4 77 -30 190 -61 270 -5 11 52 -70 125 -180 73
-110 142 -211 153 -225 l20 -25 -7 55 c-9 67 -59 222 -88 268 -11 18 -19 35
-17 37 11 10 185 -311 258 -475 24 -52 47 -99 53 -105 27 -28 -11 236 -47 329
-23 55 -12 55 20 -1 61 -110 127 -258 168 -382 25 -73 47 -129 50 -124 9 15
20 84 21 142 3 100 -38 242 -95 329 -16 23 -27 42 -25 42 4 0 50 -46 101 -100
26 -27 32 -39 18 -31 -12 6 -24 11 -27 11 -2 0 14 -42 36 -92 60 -139 95 -238
129 -367 36 -134 38 -140 52 -116 31 56 41 173 22 268 -9 47 10 23 59 -72 44
-86 106 -252 109 -292 1 -10 5 -19 9 -19 11 0 -3 80 -36 210 -18 68 -86 221
-142 317 l-29 48 25 -18 c44 -31 202 -105 284 -131 93 -31 86 -30 86 -8 0 47
-248 214 -430 289 -47 19 -96 46 -109 60 -20 22 -21 24 -5 19 68 -21 193 -47
251 -52 37 -3 83 -7 101 -9 53 -5 45 10 -31 53 -96 55 -239 109 -367 138 -89
20 -109 28 -138 58 l-35 34 69 -13 c136 -26 369 -41 394 -25 21 13 -204 98
-348 130 -44 10 -65 14 -190 34 -65 10 -79 17 -132 60 -33 27 -58 51 -56 53 2
2 34 -3 72 -11 158 -34 391 -56 379 -35 -12 18 -128 71 -244 110 -126 41 -284
76 -363 78 -15 1 -39 12 -54 25 l-28 23 75 -5 c209 -14 446 2 353 24 -16 4
-33 10 -39 14 -11 8 -200 56 -255 64 -100 15 -202 27 -256 30 -42 2 -70 9 -90
23 -16 11 -47 32 -68 47 l-40 27 60 -8 c107 -13 287 -6 281 11 -5 14 -117 59
-197 78 -120 30 -150 36 -154 29 -4 -7 -12 -75 -21 -186 -4 -38 -8 -81 -10
-95 -2 -14 -6 -53 -10 -87 -4 -35 -10 -63 -13 -63 -4 0 -7 -19 -7 -43 -1 -23
-5 -55 -9 -72 -8 -30 -8 -30 -44 39 -59 111 -81 143 -68 99 11 -34 14 -54 16
-108 5 -106 2 -104 -68 40 -58 118 -152 281 -152 263 0 -3 13 -35 30 -71 32
-71 73 -211 68 -235 -2 -8 -27 24 -56 71 -29 48 -55 87 -57 87 -2 0 7 -24 20
-52 32 -71 69 -207 51 -188 -7 8 -46 65 -87 125 -64 97 -195 265 -206 265 -2
0 1 -9 7 -19 14 -27 12 -39 -3 -21 -7 8 -34 35 -60 60 l-48 45 35 -76 c37 -81
79 -209 72 -216 -2 -3 -32 37 -67 89 -77 116 -332 458 -341 458 -4 0 13 -38
38 -84 41 -78 98 -225 90 -233 -3 -3 -185 215 -300 360 -29 36 -46 46 -46 28z"/>
<path d="M9559 5793 c-29 -35 -41 -53 -36 -53 2 0 17 16 31 35 28 36 31 49 5
18z"/>
<path d="M10855 5260 c-3 -5 -1 -10 4 -10 6 0 11 5 11 10 0 6 -2 10 -4 10 -3
0 -8 -4 -11 -10z"/>
<path d="M10852 5215 c0 -16 2 -22 5 -12 2 9 2 23 0 30 -3 6 -5 -1 -5 -18z"/>
<path d="M15021 4114 c0 -11 3 -14 6 -6 3 7 2 16 -1 19 -3 4 -6 -2 -5 -13z"/>
</g>
</svg>
